<?xml version="1.0" encoding="UTF-8" ?>
<!DOCTYPE svg PUBLIC "-//W3C//DTD SVG 1.1//EN" "http://www.w3.org/Graphics/SVG/1.1/DTD/svg11.dtd">
<svg width="163pt" height="159pt" viewBox="0 0 163 159" version="1.1" xmlns="http://www.w3.org/2000/svg">
<g id="#ffffffff">
<path fill="#ffffff" opacity="1.00" d=" M 68.05 36.99 C 76.03 36.79 84.02 36.72 92.00 36.73 C 94.06 40.33 95.23 44.33 96.66 48.19 C 100.19 58.35 104.07 68.40 107.31 78.65 C 109.55 79.02 111.79 79.44 114.01 79.92 C 105.00 80.23 97.52 85.75 90.97 91.41 C 87.31 80.94 83.64 70.47 80.00 59.99 C 76.45 70.53 72.72 81.02 69.30 91.60 C 62.63 85.43 54.21 79.83 44.72 80.51 C 47.51 79.76 50.25 78.82 53.09 78.21 C 57.88 64.40 62.92 50.67 68.05 36.99 Z" />
<path fill="#ffffff" opacity="1.00" d=" M 27.88 83.03 C 34.84 83.23 41.97 82.22 48.76 84.18 C 65.48 88.73 78.43 104.99 78.05 122.50 C 69.82 122.49 61.60 122.53 53.37 122.47 C 52.66 116.00 51.65 109.41 48.57 103.58 C 44.33 94.56 36.53 87.72 27.88 83.03 Z" />
<path fill="#ffffff" opacity="1.00" d=" M 113.00 84.02 C 119.32 82.23 125.94 83.27 132.40 83.00 C 128.30 85.61 123.99 88.00 120.47 91.40 C 112.31 99.52 107.03 110.84 107.40 122.47 C 98.91 122.17 90.39 122.04 81.91 122.49 C 82.51 113.65 85.23 104.81 91.03 97.97 C 96.49 91.00 104.48 86.23 113.00 84.02 Z" />
<path fill="#ffffff" opacity="1.00" d=" M 40.23 99.29 C 44.13 101.88 45.65 106.49 47.13 110.70 C 48.44 114.49 48.97 118.50 49.11 122.50 C 45.04 122.50 40.96 122.50 36.89 122.50 C 38.47 116.84 41.08 111.53 42.46 105.82 C 42.21 103.52 40.98 101.45 40.23 99.29 Z" />
<path fill="#ffffff" opacity="1.00" d=" M 111.49 122.48 C 111.58 114.26 113.30 104.68 120.26 99.42 C 119.39 101.51 118.45 103.57 117.47 105.62 C 119.50 111.25 121.59 116.86 123.60 122.49 C 119.57 122.50 115.53 122.51 111.49 122.48 Z" />
</g>
<g id="#0f0f0fff">
<path fill="#0f0f0f" opacity="1.00" d=" M 69.46 5.74 C 86.27 3.32 103.86 6.84 118.42 15.59 C 132.46 23.90 143.61 36.96 149.63 52.13 C 155.32 66.26 156.53 82.15 153.05 96.98 C 149.20 113.78 139.32 129.13 125.59 139.55 C 113.71 148.70 99.01 154.11 84.04 154.89 C 69.02 155.73 53.78 151.89 40.95 144.03 C 27.21 135.71 16.30 122.81 10.37 107.87 C 4.68 93.74 3.47 77.86 6.95 63.03 C 10.80 46.21 20.69 30.85 34.45 20.42 C 44.60 12.62 56.79 7.54 69.46 5.74 M 68.05 36.99 C 62.92 50.67 57.88 64.40 53.09 78.21 C 50.25 78.82 47.51 79.76 44.72 80.51 C 54.21 79.83 62.63 85.43 69.30 91.60 C 72.72 81.02 76.45 70.53 80.00 59.99 C 83.64 70.47 87.31 80.94 90.97 91.41 C 97.52 85.75 105.00 80.23 114.01 79.92 C 111.79 79.44 109.55 79.02 107.31 78.65 C 104.07 68.40 100.19 58.35 96.66 48.19 C 95.23 44.33 94.06 40.33 92.00 36.73 C 84.02 36.72 76.03 36.79 68.05 36.99 M 27.88 83.03 C 36.53 87.72 44.33 94.56 48.57 103.58 C 51.65 109.41 52.66 116.00 53.37 122.47 C 61.60 122.53 69.82 122.49 78.05 122.50 C 78.43 104.99 65.48 88.73 48.76 84.18 C 41.97 82.22 34.84 83.23 27.88 83.03 M 113.00 84.02 C 104.48 86.23 96.49 91.00 91.03 97.97 C 85.23 104.81 82.51 113.65 81.91 122.49 C 90.39 122.04 98.91 122.17 107.40 122.47 C 107.03 110.84 112.31 99.52 120.47 91.40 C 123.99 88.00 128.30 85.61 132.40 83.00 C 125.94 83.27 119.32 82.23 113.00 84.02 M 40.23 99.29 C 40.98 101.45 42.21 103.52 42.46 105.82 C 41.08 111.53 38.47 116.84 36.89 122.50 C 40.96 122.50 45.04 122.50 49.11 122.50 C 48.97 118.50 48.44 114.49 47.13 110.70 C 45.65 106.49 44.13 101.88 40.23 99.29 M 111.49 122.48 C 115.53 122.51 119.57 122.50 123.60 122.49 C 121.59 116.86 119.50 111.25 117.47 105.62 C 118.45 103.57 119.39 101.51 120.26 99.42 C 113.30 104.68 111.58 114.26 111.49 122.48 Z" />
</g>
</svg>
