<?xml version="1.0" encoding="UTF-8" ?>
<!DOCTYPE svg PUBLIC "-//W3C//DTD SVG 1.1//EN" "http://www.w3.org/Graphics/SVG/1.1/DTD/svg11.dtd">
<svg width="161pt" height="156pt" viewBox="0 0 161 156" version="1.1" xmlns="http://www.w3.org/2000/svg">
<g id="#ffffffff">
<path fill="#ffffff" opacity="1.00" d=" M 70.04 33.99 C 78.04 33.78 86.03 33.73 94.03 33.73 C 95.45 36.42 96.60 39.25 97.57 42.14 C 101.49 53.31 105.66 64.40 109.35 75.65 C 111.59 76.06 113.82 76.47 116.06 76.89 C 107.06 77.28 99.47 82.65 93.01 88.46 C 89.37 78.36 86.02 68.15 82.30 58.08 C 82.15 58.08 81.85 58.09 81.70 58.10 C 78.09 68.21 74.69 78.40 71.28 88.58 C 64.63 82.45 56.28 76.89 46.83 77.50 C 49.56 76.70 52.29 75.88 55.06 75.19 C 59.92 61.41 64.91 47.67 70.04 33.99 Z" />
<path fill="#ffffff" opacity="1.00" d=" M 29.70 79.98 C 37.18 80.27 44.91 79.10 52.15 81.59 C 68.21 86.63 80.39 102.48 80.06 119.50 C 71.84 119.51 63.62 119.50 55.40 119.50 C 54.63 113.27 53.77 106.90 50.89 101.23 C 46.65 91.88 38.69 84.69 29.70 79.98 Z" />
<path fill="#ffffff" opacity="1.00" d=" M 114.26 81.21 C 120.79 79.18 127.69 80.27 134.40 80.00 C 130.28 82.62 125.95 85.03 122.42 88.45 C 114.27 96.57 109.06 107.89 109.37 119.51 C 100.89 119.08 92.37 119.13 83.89 119.45 C 84.55 110.65 87.21 101.83 92.99 95.01 C 98.30 88.22 106.01 83.52 114.26 81.21 Z" />
<path fill="#ffffff" opacity="1.00" d=" M 42.25 96.28 C 46.31 99.10 47.87 103.99 49.37 108.46 C 50.55 112.02 50.92 115.77 51.13 119.50 C 47.05 119.50 42.97 119.51 38.89 119.49 C 40.46 113.85 43.10 108.55 44.43 102.84 C 44.20 100.53 43.01 98.45 42.25 96.28 Z" />
<path fill="#ffffff" opacity="1.00" d=" M 113.47 119.48 C 113.61 111.27 115.30 101.75 122.20 96.44 C 121.37 98.54 120.44 100.60 119.48 102.64 C 121.51 108.26 123.59 113.86 125.60 119.49 C 121.56 119.51 117.51 119.51 113.47 119.48 Z" />
</g>
<g id="#23c052ff">
<path fill="#23c052" opacity="1.00" d=" M 71.49 2.73 C 88.27 0.32 105.83 3.84 120.38 12.56 C 134.44 20.88 145.61 33.96 151.64 49.15 C 157.33 63.29 158.54 79.18 155.04 94.02 C 151.18 110.83 141.28 126.17 127.54 136.59 C 115.94 145.50 101.66 150.87 87.06 151.83 C 71.48 152.92 55.61 148.95 42.37 140.68 C 27.70 131.61 16.37 117.30 10.92 100.94 C 4.83 83.08 5.89 62.93 13.79 45.79 C 24.06 22.87 46.59 6.06 71.49 2.73 M 70.04 33.99 C 64.91 47.67 59.92 61.41 55.06 75.19 C 52.29 75.88 49.56 76.70 46.83 77.50 C 56.28 76.89 64.63 82.45 71.28 88.58 C 74.69 78.40 78.09 68.21 81.70 58.10 C 81.85 58.09 82.15 58.08 82.30 58.08 C 86.02 68.15 89.37 78.36 93.01 88.46 C 99.47 82.65 107.06 77.28 116.06 76.89 C 113.82 76.47 111.59 76.06 109.35 75.65 C 105.66 64.40 101.49 53.31 97.57 42.14 C 96.60 39.25 95.45 36.42 94.03 33.73 C 86.03 33.73 78.04 33.78 70.04 33.99 M 29.70 79.98 C 38.69 84.69 46.65 91.88 50.89 101.23 C 53.77 106.90 54.63 113.27 55.40 119.50 C 63.62 119.50 71.84 119.51 80.06 119.50 C 80.39 102.48 68.21 86.63 52.15 81.59 C 44.91 79.10 37.18 80.27 29.70 79.98 M 114.26 81.21 C 106.01 83.52 98.30 88.22 92.99 95.01 C 87.21 101.83 84.55 110.65 83.89 119.45 C 92.37 119.13 100.89 119.08 109.37 119.51 C 109.06 107.89 114.27 96.57 122.42 88.45 C 125.95 85.03 130.28 82.62 134.40 80.00 C 127.69 80.27 120.79 79.18 114.26 81.21 M 42.25 96.28 C 43.01 98.45 44.20 100.53 44.43 102.84 C 43.10 108.55 40.46 113.85 38.89 119.49 C 42.97 119.51 47.05 119.50 51.13 119.50 C 50.92 115.77 50.55 112.02 49.37 108.46 C 47.87 103.99 46.31 99.10 42.25 96.28 M 113.47 119.48 C 117.51 119.51 121.56 119.51 125.60 119.49 C 123.59 113.86 121.51 108.26 119.48 102.64 C 120.44 100.60 121.37 98.54 122.20 96.44 C 115.30 101.75 113.61 111.27 113.47 119.48 Z" />
</g>
</svg>
