<?xml version="1.0" encoding="UTF-8" ?>
<!DOCTYPE svg PUBLIC "-//W3C//DTD SVG 1.1//EN" "http://www.w3.org/Graphics/SVG/1.1/DTD/svg11.dtd">
<svg width="167pt" height="155pt" viewBox="0 0 167 155" version="1.1" xmlns="http://www.w3.org/2000/svg">
<g id="#ffffffff">
<path fill="#ffffff" opacity="1.00" d=" M 71.05 33.99 C 79.03 33.78 87.01 33.73 95.00 33.73 C 97.42 38.04 98.72 42.84 100.47 47.44 C 103.75 56.86 107.29 66.18 110.36 75.67 C 112.60 76.04 114.84 76.47 117.08 76.92 C 108.07 77.25 100.47 82.65 94.02 88.47 C 90.31 78.11 86.78 67.68 83.08 57.32 C 79.15 67.61 75.83 78.14 72.29 88.58 C 65.62 82.43 57.24 76.89 47.77 77.48 C 50.53 76.72 53.27 75.85 56.06 75.20 C 60.91 61.41 65.90 47.67 71.05 33.99 Z" />
<path fill="#ffffff" opacity="1.00" d=" M 30.64 79.98 C 37.66 80.30 44.87 79.18 51.73 81.18 C 68.47 85.71 81.42 101.98 81.05 119.50 C 72.83 119.51 64.61 119.50 56.40 119.50 C 55.65 113.52 54.88 107.41 52.22 101.93 C 48.03 92.26 39.91 84.74 30.64 79.98 Z" />
<path fill="#ffffff" opacity="1.00" d=" M 93.61 95.51 C 101.38 85.42 114.29 79.25 127.05 79.99 C 129.83 80.01 132.61 79.99 135.40 80.00 C 131.08 82.75 126.52 85.27 122.91 88.95 C 115.11 97.03 110.01 108.09 110.42 119.45 C 101.92 119.18 93.40 119.07 84.90 119.47 C 85.54 110.88 88.04 102.24 93.61 95.51 Z" />
<path fill="#ffffff" opacity="1.00" d=" M 45.44 102.86 C 45.24 100.54 43.99 98.47 43.24 96.29 C 47.11 98.89 48.64 103.45 50.11 107.63 C 51.44 111.45 51.96 115.47 52.11 119.50 C 48.04 119.50 43.97 119.51 39.90 119.49 C 41.45 113.85 44.09 108.56 45.44 102.86 Z" />
<path fill="#ffffff" opacity="1.00" d=" M 114.49 119.48 C 114.57 111.24 116.33 101.70 123.25 96.39 C 122.39 98.50 121.45 100.57 120.48 102.63 C 122.50 108.25 124.59 113.85 126.60 119.49 C 122.56 119.51 118.53 119.51 114.49 119.48 Z" />
</g>
<g id="#89c023ff">
<path fill="#89c023" opacity="1.00" d=" M 72.49 2.74 C 89.27 0.32 106.84 3.84 121.38 12.56 C 135.28 20.78 146.35 33.66 152.42 48.62 C 158.29 62.90 159.58 79.00 156.04 94.03 C 152.13 111.06 142.01 126.59 127.98 137.01 C 115.40 146.50 99.75 151.81 83.99 152.00 C 67.57 152.25 51.12 146.90 38.01 137.01 C 23.68 126.35 13.44 110.38 9.71 92.91 C 6.02 76.22 8.35 58.31 16.10 43.08 C 26.85 21.51 48.60 5.94 72.49 2.74 M 71.05 33.99 C 65.90 47.67 60.91 61.41 56.06 75.20 C 53.27 75.85 50.53 76.72 47.77 77.48 C 57.24 76.89 65.62 82.43 72.29 88.58 C 75.83 78.14 79.15 67.61 83.08 57.32 C 86.78 67.68 90.31 78.11 94.02 88.47 C 100.47 82.65 108.07 77.25 117.08 76.92 C 114.84 76.47 112.60 76.04 110.36 75.67 C 107.29 66.18 103.75 56.86 100.47 47.44 C 98.72 42.84 97.42 38.04 95.00 33.73 C 87.01 33.73 79.03 33.78 71.05 33.99 M 30.64 79.98 C 39.91 84.74 48.03 92.26 52.22 101.93 C 54.88 107.41 55.65 113.52 56.40 119.50 C 64.61 119.50 72.83 119.51 81.05 119.50 C 81.42 101.98 68.47 85.71 51.73 81.18 C 44.87 79.18 37.66 80.30 30.64 79.98 M 93.61 95.51 C 88.04 102.24 85.54 110.88 84.90 119.47 C 93.40 119.07 101.92 119.18 110.42 119.45 C 110.01 108.09 115.11 97.03 122.91 88.95 C 126.52 85.27 131.08 82.75 135.40 80.00 C 132.61 79.99 129.83 80.01 127.05 79.99 C 114.29 79.25 101.38 85.42 93.61 95.51 M 45.44 102.86 C 44.09 108.56 41.45 113.85 39.90 119.49 C 43.97 119.51 48.04 119.50 52.11 119.50 C 51.96 115.47 51.44 111.45 50.11 107.63 C 48.64 103.45 47.11 98.89 43.24 96.29 C 43.99 98.47 45.24 100.54 45.44 102.86 M 114.49 119.48 C 118.53 119.51 122.56 119.51 126.60 119.49 C 124.59 113.85 122.50 108.25 120.48 102.63 C 121.45 100.57 122.39 98.50 123.25 96.39 C 116.33 101.70 114.57 111.24 114.49 119.48 Z" />
</g>
</svg>
