<?xml version="1.0" encoding="UTF-8" ?>
<!DOCTYPE svg PUBLIC "-//W3C//DTD SVG 1.1//EN" "http://www.w3.org/Graphics/SVG/1.1/DTD/svg11.dtd">
<svg width="165pt" height="158pt" viewBox="0 0 165 158" version="1.1" xmlns="http://www.w3.org/2000/svg">
<g id="#ffffffff">
<path fill="#ffffff" opacity="1.00" d=" M 71.05 35.99 C 79.04 35.78 87.03 35.72 95.02 35.73 C 97.41 40.11 98.77 44.93 100.52 49.59 C 103.78 58.95 107.32 68.21 110.34 77.65 C 112.60 78.05 114.86 78.47 117.13 78.89 C 108.17 79.30 100.49 84.52 94.14 90.44 C 90.14 80.06 86.74 69.45 83.00 58.98 C 79.45 69.52 75.73 80.01 72.29 90.59 C 65.61 84.37 57.20 78.97 47.71 79.39 C 50.51 78.72 53.27 77.91 56.06 77.19 C 60.91 63.40 65.91 49.67 71.05 35.99 Z" />
<path fill="#ffffff" opacity="1.00" d=" M 30.69 81.99 C 37.72 82.28 44.94 81.19 51.80 83.19 C 68.51 87.75 81.41 104.00 81.06 121.50 C 72.84 121.51 64.62 121.50 56.40 121.50 C 55.64 115.27 54.77 108.91 51.90 103.24 C 47.66 93.89 39.69 86.68 30.69 81.99 Z" />
<path fill="#ffffff" opacity="1.00" d=" M 115.97 83.02 C 122.30 81.24 128.93 82.26 135.41 82.00 C 131.29 84.61 126.98 87.02 123.45 90.42 C 115.29 98.54 110.06 109.86 110.38 121.48 C 101.89 121.13 93.38 121.10 84.89 121.46 C 85.51 112.16 88.62 102.92 94.90 95.89 C 100.34 89.52 107.91 85.13 115.97 83.02 Z" />
<path fill="#ffffff" opacity="1.00" d=" M 43.24 98.27 C 47.30 101.08 48.85 105.95 50.35 110.40 C 51.54 113.98 51.93 117.75 52.13 121.50 C 48.04 121.50 43.97 121.50 39.89 121.50 C 41.48 115.83 44.11 110.49 45.47 104.76 C 45.13 102.48 44.01 100.42 43.24 98.27 Z" />
<path fill="#ffffff" opacity="1.00" d=" M 114.47 121.47 C 114.60 113.23 116.33 103.70 123.26 98.38 C 122.39 100.48 121.46 102.56 120.48 104.61 C 122.50 110.24 124.59 115.85 126.60 121.49 C 122.56 121.51 118.51 121.52 114.47 121.47 Z" />
</g>
<g id="#eb1f10ff">
<path fill="#eb1f10" opacity="1.00" d=" M 72.50 4.73 C 89.29 2.32 106.86 5.85 121.41 14.58 C 135.30 22.81 146.36 35.67 152.42 50.62 C 158.29 64.87 159.58 80.96 156.05 95.97 C 152.20 112.80 142.29 128.17 128.53 138.60 C 115.32 148.76 98.64 154.26 81.98 153.99 C 66.22 153.81 50.57 148.48 37.98 138.99 C 25.69 129.82 16.37 116.75 11.66 102.15 C 6.10 85.19 6.91 66.24 13.91 49.82 C 23.76 25.89 46.85 8.14 72.50 4.73 M 71.05 35.99 C 65.91 49.67 60.91 63.40 56.06 77.19 C 53.27 77.91 50.51 78.72 47.71 79.39 C 57.20 78.97 65.61 84.37 72.29 90.59 C 75.73 80.01 79.45 69.52 83.00 58.98 C 86.74 69.45 90.14 80.06 94.14 90.44 C 100.49 84.52 108.17 79.30 117.13 78.89 C 114.86 78.47 112.60 78.05 110.34 77.65 C 107.32 68.21 103.78 58.95 100.52 49.59 C 98.77 44.93 97.41 40.11 95.02 35.73 C 87.03 35.72 79.04 35.78 71.05 35.99 M 30.69 81.99 C 39.69 86.68 47.66 93.89 51.90 103.24 C 54.77 108.91 55.64 115.27 56.40 121.50 C 64.62 121.50 72.84 121.51 81.06 121.50 C 81.41 104.00 68.51 87.75 51.80 83.19 C 44.94 81.19 37.72 82.28 30.69 81.99 M 115.97 83.02 C 107.91 85.13 100.34 89.52 94.90 95.89 C 88.62 102.92 85.51 112.16 84.89 121.46 C 93.38 121.10 101.89 121.13 110.38 121.48 C 110.06 109.86 115.29 98.54 123.45 90.42 C 126.98 87.02 131.29 84.61 135.41 82.00 C 128.93 82.26 122.30 81.24 115.97 83.02 M 43.24 98.27 C 44.01 100.42 45.13 102.48 45.47 104.76 C 44.11 110.49 41.48 115.83 39.89 121.50 C 43.97 121.50 48.04 121.50 52.13 121.50 C 51.93 117.75 51.54 113.98 50.35 110.40 C 48.85 105.95 47.30 101.08 43.24 98.27 M 114.47 121.47 C 118.51 121.52 122.56 121.51 126.60 121.49 C 124.59 115.85 122.50 110.24 120.48 104.61 C 121.46 102.56 122.39 100.48 123.26 98.38 C 116.33 103.70 114.60 113.23 114.47 121.47 Z" />
</g>
</svg>
