<?xml version="1.0" encoding="UTF-8" ?>
<!DOCTYPE svg PUBLIC "-//W3C//DTD SVG 1.1//EN" "http://www.w3.org/Graphics/SVG/1.1/DTD/svg11.dtd">
<svg width="159pt" height="153pt" viewBox="0 0 159 153" version="1.1" xmlns="http://www.w3.org/2000/svg">
<g id="#ffffffff">
<path fill="#ffffff" opacity="1.00" d=" M 67.06 31.99 C 75.03 31.79 83.01 31.72 90.99 31.73 C 93.21 35.57 94.39 39.87 95.95 44.00 C 99.39 53.89 103.15 63.67 106.32 73.66 C 108.44 74.01 110.55 74.39 112.65 74.84 C 103.97 75.59 96.37 80.49 90.26 86.42 C 86.00 76.19 82.87 65.48 79.01 55.07 C 75.39 65.56 71.74 76.04 68.30 86.59 C 61.63 80.45 53.26 74.88 43.79 75.48 C 46.56 74.73 49.28 73.83 52.07 73.21 C 56.89 59.41 61.91 45.67 67.06 31.99 Z" />
<path fill="#ffffff" opacity="1.00" d=" M 26.80 78.01 C 33.55 78.25 40.44 77.26 47.05 79.00 C 64.10 83.26 77.44 99.74 77.04 117.49 C 68.86 117.54 60.67 117.43 52.48 117.56 C 51.55 108.85 49.47 100.01 44.20 92.84 C 39.78 86.50 33.54 81.67 26.80 78.01 Z" />
<path fill="#ffffff" opacity="1.00" d=" M 111.09 79.26 C 117.64 77.24 124.57 78.12 131.30 78.12 C 127.20 80.63 122.96 83.04 119.47 86.40 C 111.31 94.52 106.04 105.84 106.39 117.48 C 97.90 117.16 89.39 117.06 80.91 117.49 C 81.51 108.66 84.23 99.82 90.01 92.98 C 95.28 86.25 102.92 81.58 111.09 79.26 Z" />
<path fill="#ffffff" opacity="1.00" d=" M 39.23 94.30 C 43.17 96.90 44.67 101.57 46.16 105.80 C 47.45 109.56 47.98 113.53 48.10 117.50 C 44.03 117.50 39.96 117.51 35.89 117.49 C 37.46 111.86 40.07 106.57 41.44 100.88 C 41.28 98.56 39.97 96.48 39.23 94.30 Z" />
<path fill="#ffffff" opacity="1.00" d=" M 110.50 117.47 C 110.59 109.31 112.27 99.73 119.19 94.51 C 118.36 96.58 117.43 98.61 116.47 100.63 C 118.51 106.25 120.59 111.86 122.60 117.49 C 118.56 117.51 114.53 117.52 110.50 117.47 Z" />
</g>
<g id="#531a5dff">
<path fill="#531a5d" opacity="1.00" d=" M 75.53 0.00 L 82.53 0.00 C 103.59 1.07 124.03 11.25 137.24 27.73 C 147.58 40.42 153.57 56.57 153.97 72.94 C 154.48 89.72 149.11 106.61 138.99 120.01 C 128.54 134.05 112.99 144.16 95.94 148.06 C 80.95 151.58 64.88 150.28 50.64 144.43 C 35.89 138.45 23.17 127.61 14.93 113.99 C 6.05 99.49 2.36 81.91 4.66 65.06 C 6.84 48.39 14.86 32.55 27.02 20.94 C 39.95 8.36 57.55 0.95 75.53 0.00 M 67.06 31.99 C 61.91 45.67 56.89 59.41 52.07 73.21 C 49.28 73.83 46.56 74.73 43.79 75.48 C 53.26 74.88 61.63 80.45 68.30 86.59 C 71.74 76.04 75.39 65.56 79.01 55.07 C 82.87 65.48 86.00 76.19 90.26 86.42 C 96.37 80.49 103.97 75.59 112.65 74.84 C 110.55 74.39 108.44 74.01 106.32 73.66 C 103.15 63.67 99.39 53.89 95.95 44.00 C 94.39 39.87 93.21 35.57 90.99 31.73 C 83.01 31.72 75.03 31.79 67.06 31.99 M 26.80 78.01 C 33.54 81.67 39.78 86.50 44.20 92.84 C 49.47 100.01 51.55 108.85 52.48 117.56 C 60.67 117.43 68.86 117.54 77.04 117.49 C 77.44 99.74 64.10 83.26 47.05 79.00 C 40.44 77.26 33.55 78.25 26.80 78.01 M 111.09 79.26 C 102.92 81.58 95.28 86.25 90.01 92.98 C 84.23 99.82 81.51 108.66 80.91 117.49 C 89.39 117.06 97.90 117.16 106.39 117.48 C 106.04 105.84 111.31 94.52 119.47 86.40 C 122.96 83.04 127.20 80.63 131.30 78.12 C 124.57 78.12 117.64 77.24 111.09 79.26 M 39.23 94.30 C 39.97 96.48 41.28 98.56 41.44 100.88 C 40.07 106.57 37.46 111.86 35.89 117.49 C 39.96 117.51 44.03 117.50 48.10 117.50 C 47.98 113.53 47.45 109.56 46.16 105.80 C 44.67 101.57 43.17 96.90 39.23 94.30 M 110.50 117.47 C 114.53 117.52 118.56 117.51 122.60 117.49 C 120.59 111.86 118.51 106.25 116.47 100.63 C 117.43 98.61 118.36 96.58 119.19 94.51 C 112.27 99.73 110.59 109.31 110.50 117.47 Z" />
</g>
</svg>
