<?xml version="1.0" encoding="UTF-8" ?>
<!DOCTYPE svg PUBLIC "-//W3C//DTD SVG 1.1//EN" "http://www.w3.org/Graphics/SVG/1.1/DTD/svg11.dtd">
<svg width="164pt" height="157pt" viewBox="0 0 164 157" version="1.1" xmlns="http://www.w3.org/2000/svg">
<g id="#ffffffff">
<path fill="#ffffff" opacity="1.00" d=" M 70.05 34.99 C 78.04 34.78 86.02 34.72 94.01 34.73 C 96.51 39.30 97.90 44.35 99.74 49.21 C 102.93 58.36 106.38 67.43 109.35 76.65 C 111.59 77.05 113.83 77.47 116.07 77.91 C 107.07 78.26 99.48 83.66 93.01 89.45 C 89.29 78.98 85.67 68.48 82.00 57.99 C 78.44 68.53 74.74 79.02 71.29 89.59 C 64.62 83.43 56.24 77.88 46.77 78.49 C 49.53 77.72 52.27 76.88 55.06 76.19 C 59.91 62.41 64.91 48.67 70.05 34.99 Z" />
<path fill="#ffffff" opacity="1.00" d=" M 29.69 80.99 C 36.70 81.28 43.89 80.20 50.74 82.18 C 67.47 86.72 80.42 102.98 80.05 120.50 C 71.84 120.51 63.62 120.50 55.40 120.50 C 54.63 114.27 53.77 107.90 50.89 102.24 C 46.65 92.88 38.69 85.68 29.69 80.99 Z" />
<path fill="#ffffff" opacity="1.00" d=" M 114.25 82.22 C 120.78 80.17 127.69 81.27 134.40 81.00 C 130.28 83.63 125.94 86.03 122.41 89.46 C 114.28 97.57 109.04 108.87 109.39 120.48 C 100.90 120.14 92.38 120.10 83.90 120.46 C 84.50 110.95 87.79 101.54 94.29 94.43 C 99.55 88.50 106.65 84.33 114.25 82.22 Z" />
<path fill="#ffffff" opacity="1.00" d=" M 42.24 97.28 C 46.32 100.08 47.86 104.98 49.36 109.44 C 50.55 113.00 50.93 116.76 51.12 120.50 C 47.04 120.50 42.97 120.51 38.89 120.49 C 40.45 114.88 43.07 109.60 44.41 103.92 C 44.31 101.58 42.97 99.48 42.24 97.28 Z" />
<path fill="#ffffff" opacity="1.00" d=" M 113.48 120.48 C 113.60 112.26 115.31 102.72 122.23 97.42 C 121.38 99.52 120.44 101.59 119.48 103.64 C 121.51 109.26 123.59 114.86 125.60 120.49 C 121.56 120.51 117.52 120.51 113.48 120.48 Z" />
</g>
<g id="#eb5510ff">
<path fill="#eb5510" opacity="1.00" d=" M 71.49 3.74 C 88.30 1.32 105.88 4.85 120.44 13.60 C 134.47 21.92 145.61 34.97 151.63 50.13 C 157.32 64.26 158.54 80.15 155.05 94.98 C 151.14 112.04 141.01 127.58 126.97 138.02 C 114.13 147.70 98.11 153.03 82.04 153.00 C 66.17 153.04 50.34 147.86 37.58 138.43 C 24.99 129.24 15.44 115.98 10.66 101.15 C 4.69 82.99 6.09 62.58 14.45 45.40 C 24.98 23.16 47.10 7.00 71.49 3.74 M 70.05 34.99 C 64.91 48.67 59.91 62.41 55.06 76.19 C 52.27 76.88 49.53 77.72 46.77 78.49 C 56.24 77.88 64.62 83.43 71.29 89.59 C 74.74 79.02 78.44 68.53 82.00 57.99 C 85.67 68.48 89.29 78.98 93.01 89.45 C 99.48 83.66 107.07 78.26 116.07 77.91 C 113.83 77.47 111.59 77.05 109.35 76.65 C 106.38 67.43 102.93 58.36 99.74 49.21 C 97.90 44.35 96.51 39.30 94.01 34.73 C 86.02 34.72 78.04 34.78 70.05 34.99 M 29.69 80.99 C 38.69 85.68 46.65 92.88 50.89 102.24 C 53.77 107.90 54.63 114.27 55.40 120.50 C 63.62 120.50 71.84 120.51 80.05 120.50 C 80.42 102.98 67.47 86.72 50.74 82.18 C 43.89 80.20 36.70 81.28 29.69 80.99 M 114.25 82.22 C 106.65 84.33 99.55 88.50 94.29 94.43 C 87.79 101.54 84.50 110.95 83.90 120.46 C 92.38 120.10 100.90 120.14 109.39 120.48 C 109.04 108.87 114.28 97.57 122.41 89.46 C 125.94 86.03 130.28 83.63 134.40 81.00 C 127.69 81.27 120.78 80.17 114.25 82.22 M 42.24 97.28 C 42.97 99.48 44.31 101.58 44.41 103.92 C 43.07 109.60 40.45 114.88 38.89 120.49 C 42.97 120.51 47.04 120.50 51.12 120.50 C 50.93 116.76 50.55 113.00 49.36 109.44 C 47.86 104.98 46.32 100.08 42.24 97.28 M 113.48 120.48 C 117.52 120.51 121.56 120.51 125.60 120.49 C 123.59 114.86 121.51 109.26 119.48 103.64 C 120.44 101.59 121.38 99.52 122.23 97.42 C 115.31 102.72 113.60 112.26 113.48 120.48 Z" />
</g>
</svg>
