<?xml version="1.0" encoding="UTF-8" ?>
<!DOCTYPE svg PUBLIC "-//W3C//DTD SVG 1.1//EN" "http://www.w3.org/Graphics/SVG/1.1/DTD/svg11.dtd">
<svg width="166pt" height="155pt" viewBox="0 0 166 155" version="1.1" xmlns="http://www.w3.org/2000/svg">
<g id="#ffffffff">
<path fill="#ffffff" opacity="1.00" d=" M 70.05 31.99 C 78.04 31.78 86.02 31.72 94.01 31.73 C 96.51 36.28 97.89 41.32 99.72 46.15 C 102.92 55.32 106.37 64.41 109.35 73.66 C 111.60 74.05 113.85 74.46 116.09 74.91 C 107.03 75.20 99.56 80.76 92.94 86.39 C 89.33 75.91 85.63 65.46 82.00 54.99 C 78.45 65.53 74.74 76.01 71.29 86.59 C 64.63 80.44 56.27 74.90 46.82 75.48 C 49.56 74.71 52.29 73.86 55.06 73.20 C 59.91 59.41 64.91 45.67 70.05 31.99 Z" />
<path fill="#ffffff" opacity="1.00" d=" M 29.69 77.99 C 36.72 78.28 43.93 77.19 50.79 79.19 C 67.50 83.75 80.42 100.00 80.05 117.50 C 71.85 117.53 63.65 117.46 55.45 117.54 C 54.60 111.54 53.90 105.38 51.19 99.88 C 47.01 90.24 38.91 82.78 29.69 77.99 Z" />
<path fill="#ffffff" opacity="1.00" d=" M 114.27 79.21 C 120.79 77.18 127.69 78.27 134.40 78.00 C 130.29 80.62 125.97 83.02 122.44 86.43 C 114.29 94.54 109.05 105.86 109.38 117.48 C 100.90 117.14 92.38 117.09 83.90 117.47 C 84.52 108.42 87.40 99.41 93.41 92.48 C 98.71 85.97 106.23 81.46 114.27 79.21 Z" />
<path fill="#ffffff" opacity="1.00" d=" M 42.24 94.28 C 46.13 96.92 47.69 101.54 49.15 105.78 C 50.47 109.54 50.94 113.53 51.12 117.50 C 47.04 117.50 42.97 117.51 38.89 117.49 C 40.46 111.85 43.09 106.56 44.44 100.86 C 44.23 98.54 42.99 96.46 42.24 94.28 Z" />
<path fill="#ffffff" opacity="1.00" d=" M 113.48 117.47 C 113.60 109.25 115.32 99.71 122.24 94.41 C 121.38 96.52 120.44 98.59 119.48 100.65 C 121.51 106.26 123.59 111.86 125.60 117.49 C 121.56 117.51 117.52 117.52 113.48 117.47 Z" />
</g>
<g id="#b1126fff">
<path fill="#b1126f" opacity="1.00" d=" M 78.06 0.00 L 85.46 0.00 C 106.56 1.04 127.04 11.24 140.26 27.76 C 152.10 42.27 158.16 61.33 156.83 80.01 C 155.70 97.70 148.01 114.89 135.56 127.51 C 125.41 137.91 112.15 145.22 97.94 148.28 C 80.74 152.09 62.24 149.51 46.72 141.19 C 34.09 134.49 23.48 124.08 16.52 111.59 C 7.98 96.38 5.01 78.13 8.32 61.00 C 11.67 43.04 21.87 26.47 36.43 15.43 C 48.34 6.22 63.08 0.99 78.06 0.00 M 70.05 31.99 C 64.91 45.67 59.91 59.41 55.06 73.20 C 52.29 73.86 49.56 74.71 46.82 75.48 C 56.27 74.90 64.63 80.44 71.29 86.59 C 74.74 76.01 78.45 65.53 82.00 54.99 C 85.63 65.46 89.33 75.91 92.94 86.39 C 99.56 80.76 107.03 75.20 116.09 74.91 C 113.85 74.46 111.60 74.05 109.35 73.66 C 106.37 64.41 102.92 55.32 99.72 46.15 C 97.89 41.32 96.51 36.28 94.01 31.73 C 86.02 31.72 78.04 31.78 70.05 31.99 M 29.69 77.99 C 38.91 82.78 47.01 90.24 51.19 99.88 C 53.90 105.38 54.60 111.54 55.45 117.54 C 63.65 117.46 71.85 117.53 80.05 117.50 C 80.42 100.00 67.50 83.75 50.79 79.19 C 43.93 77.19 36.72 78.28 29.69 77.99 M 114.27 79.21 C 106.23 81.46 98.71 85.97 93.41 92.48 C 87.40 99.41 84.52 108.42 83.90 117.47 C 92.38 117.09 100.90 117.14 109.38 117.48 C 109.05 105.86 114.29 94.54 122.44 86.43 C 125.97 83.02 130.29 80.62 134.40 78.00 C 127.69 78.27 120.79 77.18 114.27 79.21 M 42.24 94.28 C 42.99 96.46 44.23 98.54 44.44 100.86 C 43.09 106.56 40.46 111.85 38.89 117.49 C 42.97 117.51 47.04 117.50 51.12 117.50 C 50.94 113.53 50.47 109.54 49.15 105.78 C 47.69 101.54 46.13 96.92 42.24 94.28 M 113.48 117.47 C 117.52 117.52 121.56 117.51 125.60 117.49 C 123.59 111.86 121.51 106.26 119.48 100.65 C 120.44 98.59 121.38 96.52 122.24 94.41 C 115.32 99.71 113.60 109.25 113.48 117.47 Z" />
</g>
</svg>
