<?xml version="1.0" encoding="UTF-8" ?>
<!DOCTYPE svg PUBLIC "-//W3C//DTD SVG 1.1//EN" "http://www.w3.org/Graphics/SVG/1.1/DTD/svg11.dtd">
<svg width="165pt" height="154pt" viewBox="0 0 165 154" version="1.1" xmlns="http://www.w3.org/2000/svg">
<g id="#ffffffff">
<path fill="#ffffff" opacity="1.00" d=" M 71.05 33.99 C 79.03 33.78 87.02 33.72 95.02 33.73 C 97.62 38.54 99.06 43.84 101.00 48.93 C 104.10 57.84 107.46 66.67 110.35 75.65 C 112.60 76.05 114.85 76.48 117.10 76.91 C 108.09 77.24 100.48 82.65 94.01 88.46 C 90.29 77.98 86.67 67.48 83.00 56.98 C 79.45 67.52 75.74 78.01 72.29 88.59 C 65.63 82.41 57.24 76.92 47.77 77.45 C 50.53 76.70 53.28 75.89 56.06 75.20 C 60.91 61.41 65.91 47.67 71.05 33.99 Z" />
<path fill="#ffffff" opacity="1.00" d=" M 30.69 79.99 C 37.93 80.27 45.37 79.16 52.41 81.36 C 68.82 86.15 81.41 102.21 81.05 119.50 C 72.84 119.51 64.62 119.49 56.41 119.50 C 55.63 113.29 54.78 106.94 51.91 101.28 C 47.68 91.91 39.70 84.69 30.69 79.99 Z" />
<path fill="#ffffff" opacity="1.00" d=" M 115.27 81.21 C 121.79 79.17 128.69 80.28 135.40 80.00 C 131.29 82.62 126.96 85.02 123.43 88.44 C 115.28 96.56 110.05 107.87 110.38 119.49 C 101.90 119.12 93.38 119.11 84.90 119.46 C 85.54 110.66 88.21 101.83 94.00 95.01 C 99.30 88.22 107.02 83.52 115.27 81.21 Z" />
<path fill="#ffffff" opacity="1.00" d=" M 43.24 96.28 C 47.33 99.09 48.87 104.02 50.38 108.49 C 51.55 112.04 51.93 115.78 52.12 119.50 C 48.04 119.50 43.96 119.51 39.89 119.49 C 41.46 113.88 44.07 108.60 45.41 102.92 C 45.31 100.58 43.97 98.48 43.24 96.28 Z" />
<path fill="#ffffff" opacity="1.00" d=" M 114.47 119.47 C 114.60 111.25 116.31 101.72 123.23 96.41 C 122.38 98.52 121.44 100.59 120.47 102.64 C 122.51 108.26 124.59 113.86 126.60 119.49 C 122.56 119.51 118.52 119.51 114.47 119.47 Z" />
</g>
<g id="#292cd8ff">
<path fill="#292cd8" opacity="1.00" d=" M 71.54 2.88 C 85.45 0.71 99.97 2.57 112.88 8.21 C 129.92 15.53 143.98 29.46 151.49 46.42 C 158.12 61.21 159.77 78.17 156.05 93.95 C 152.16 111.00 142.05 126.53 128.03 136.98 C 114.64 147.09 97.78 152.46 81.01 151.98 C 65.59 151.59 50.33 146.29 38.01 137.01 C 25.70 127.84 16.38 114.77 11.67 100.16 C 5.69 82.00 7.09 61.59 15.45 44.40 C 25.84 22.46 47.52 6.41 71.54 2.88 M 71.05 33.99 C 65.91 47.67 60.91 61.41 56.06 75.20 C 53.28 75.89 50.53 76.70 47.77 77.45 C 57.24 76.92 65.63 82.41 72.29 88.59 C 75.74 78.01 79.45 67.52 83.00 56.98 C 86.67 67.48 90.29 77.98 94.01 88.46 C 100.48 82.65 108.09 77.24 117.10 76.91 C 114.85 76.48 112.60 76.05 110.35 75.65 C 107.46 66.67 104.10 57.84 101.00 48.93 C 99.06 43.84 97.62 38.54 95.02 33.73 C 87.02 33.72 79.03 33.78 71.05 33.99 M 30.69 79.99 C 39.70 84.69 47.68 91.91 51.91 101.28 C 54.78 106.94 55.63 113.29 56.41 119.50 C 64.62 119.49 72.84 119.51 81.05 119.50 C 81.41 102.21 68.82 86.15 52.41 81.36 C 45.37 79.16 37.93 80.27 30.69 79.99 M 115.27 81.21 C 107.02 83.52 99.30 88.22 94.00 95.01 C 88.21 101.83 85.54 110.66 84.90 119.46 C 93.38 119.11 101.90 119.12 110.38 119.49 C 110.05 107.87 115.28 96.56 123.43 88.44 C 126.96 85.02 131.29 82.62 135.40 80.00 C 128.69 80.28 121.79 79.17 115.27 81.21 M 43.24 96.28 C 43.97 98.48 45.31 100.58 45.41 102.92 C 44.07 108.60 41.46 113.88 39.89 119.49 C 43.96 119.51 48.04 119.50 52.12 119.50 C 51.93 115.78 51.55 112.04 50.38 108.49 C 48.87 104.02 47.33 99.09 43.24 96.28 M 114.47 119.47 C 118.52 119.51 122.56 119.51 126.60 119.49 C 124.59 113.86 122.51 108.26 120.47 102.64 C 121.44 100.59 122.38 98.52 123.23 96.41 C 116.31 101.72 114.60 111.25 114.47 119.47 Z" />
</g>
</svg>
