<?xml version="1.0" encoding="UTF-8" ?>
<!DOCTYPE svg PUBLIC "-//W3C//DTD SVG 1.1//EN" "http://www.w3.org/Graphics/SVG/1.1/DTD/svg11.dtd">
<svg width="166pt" height="155pt" viewBox="0 0 166 155" version="1.1" xmlns="http://www.w3.org/2000/svg">
<g id="#ffffffff">
<path fill="#ffffff" opacity="1.00" d=" M 71.04 33.99 C 79.04 33.78 87.03 33.72 95.03 33.73 C 97.52 38.34 98.93 43.41 100.77 48.28 C 103.95 57.42 107.39 66.47 110.36 75.68 C 112.56 76.05 114.77 76.43 116.98 76.81 C 108.05 77.42 100.46 82.61 94.02 88.44 C 90.35 78.36 87.01 68.16 83.32 58.09 C 83.16 58.10 82.84 58.12 82.67 58.13 C 79.09 68.23 75.69 78.40 72.27 88.56 C 65.79 82.50 57.73 77.42 48.58 77.27 C 51.06 76.51 53.55 75.81 56.07 75.18 C 60.91 61.39 65.91 47.67 71.04 33.99 Z" />
<path fill="#ffffff" opacity="1.00" d=" M 30.70 79.99 C 37.72 80.28 44.93 79.19 51.78 81.19 C 68.50 85.74 81.40 101.99 81.06 119.49 C 72.81 119.46 64.56 119.61 56.32 119.41 C 55.67 107.88 51.26 96.32 42.62 88.42 C 39.10 85.01 34.98 82.32 30.70 79.99 Z" />
<path fill="#ffffff" opacity="1.00" d=" M 115.30 81.20 C 121.78 79.25 128.61 80.14 135.26 80.09 C 131.20 82.68 126.92 85.05 123.44 88.43 C 115.22 96.56 110.14 107.90 110.30 119.53 C 101.85 119.05 93.36 119.16 84.90 119.45 C 85.53 110.40 88.42 101.38 94.44 94.45 C 99.74 87.95 107.27 83.44 115.30 81.20 Z" />
<path fill="#ffffff" opacity="1.00" d=" M 43.24 96.28 C 47.31 99.08 48.86 103.98 50.36 108.44 C 51.55 112.00 51.93 115.76 52.12 119.49 C 48.05 119.51 43.97 119.51 39.89 119.48 C 41.46 113.86 44.08 108.59 45.42 102.91 C 45.27 100.57 43.99 98.47 43.24 96.28 Z" />
<path fill="#ffffff" opacity="1.00" d=" M 114.48 119.47 C 114.61 111.29 116.27 101.74 123.20 96.48 C 122.35 98.60 121.23 100.61 120.62 102.81 C 122.42 108.43 124.70 113.89 126.58 119.49 C 122.54 119.51 118.51 119.51 114.48 119.47 Z" />
</g>
<g id="#2f94e7ff">
<path fill="#2f94e7" opacity="1.00" d=" M 72.53 2.73 C 89.31 0.33 106.85 3.85 121.38 12.56 C 135.68 21.02 146.99 34.40 152.94 49.91 C 158.37 63.85 159.47 79.42 156.05 93.98 C 152.19 110.81 142.29 126.17 128.53 136.60 C 116.93 145.50 102.66 150.87 88.07 151.83 C 72.48 152.92 56.60 148.95 43.36 140.67 C 28.97 131.77 17.79 117.83 12.24 101.85 C 6.14 84.67 6.65 65.27 13.65 48.45 C 23.36 24.20 46.64 6.15 72.53 2.73 M 71.04 33.99 C 65.91 47.67 60.91 61.39 56.07 75.18 C 53.55 75.81 51.06 76.51 48.58 77.27 C 57.73 77.42 65.79 82.50 72.27 88.56 C 75.69 78.40 79.09 68.23 82.67 58.13 C 82.84 58.12 83.16 58.10 83.32 58.09 C 87.01 68.16 90.35 78.36 94.02 88.44 C 100.46 82.61 108.05 77.42 116.98 76.81 C 114.77 76.43 112.56 76.05 110.36 75.68 C 107.39 66.47 103.95 57.42 100.77 48.28 C 98.93 43.41 97.52 38.34 95.03 33.73 C 87.03 33.72 79.04 33.78 71.04 33.99 M 30.70 79.99 C 34.98 82.32 39.10 85.01 42.62 88.42 C 51.26 96.32 55.67 107.88 56.32 119.41 C 64.56 119.61 72.81 119.46 81.06 119.49 C 81.40 101.99 68.50 85.74 51.78 81.19 C 44.93 79.19 37.72 80.28 30.70 79.99 M 115.30 81.20 C 107.27 83.44 99.74 87.95 94.44 94.45 C 88.42 101.38 85.53 110.40 84.90 119.45 C 93.36 119.16 101.85 119.05 110.30 119.53 C 110.14 107.90 115.22 96.56 123.44 88.43 C 126.92 85.05 131.20 82.68 135.26 80.09 C 128.61 80.14 121.78 79.25 115.30 81.20 M 43.24 96.28 C 43.99 98.47 45.27 100.57 45.42 102.91 C 44.08 108.59 41.46 113.86 39.89 119.48 C 43.97 119.51 48.05 119.51 52.12 119.49 C 51.93 115.76 51.55 112.00 50.36 108.44 C 48.86 103.98 47.31 99.08 43.24 96.28 M 114.48 119.47 C 118.51 119.51 122.54 119.51 126.58 119.49 C 124.70 113.89 122.42 108.43 120.62 102.81 C 121.23 100.61 122.35 98.60 123.20 96.48 C 116.27 101.74 114.61 111.29 114.48 119.47 Z" />
</g>
</svg>
