<?xml version="1.0" encoding="UTF-8" ?>
<!DOCTYPE svg PUBLIC "-//W3C//DTD SVG 1.1//EN" "http://www.w3.org/Graphics/SVG/1.1/DTD/svg11.dtd">
<svg width="163pt" height="153pt" viewBox="0 0 163 153" version="1.1" xmlns="http://www.w3.org/2000/svg">
<g id="#ffffffff">
<path fill="#ffffff" opacity="1.00" d=" M 68.06 32.98 C 76.04 32.79 84.02 32.72 92.01 32.73 C 94.54 37.32 95.91 42.42 97.77 47.30 C 100.95 56.44 104.42 65.48 107.35 74.71 C 109.53 75.08 111.74 75.36 113.95 75.52 C 110.71 76.43 107.32 76.88 104.21 78.21 C 99.36 80.58 95.11 83.95 90.96 87.35 C 87.41 77.32 83.96 67.26 80.42 57.23 C 80.21 57.22 79.80 57.21 79.59 57.21 C 76.04 67.24 72.91 77.42 69.14 87.37 C 62.50 81.56 54.41 75.81 45.12 76.62 C 47.74 75.65 50.39 74.75 53.13 74.15 C 57.87 60.34 62.94 46.65 68.06 32.98 Z" />
<path fill="#ffffff" opacity="1.00" d=" M 28.48 79.02 C 35.25 79.21 42.19 78.26 48.79 80.19 C 65.50 84.74 78.42 101.00 78.05 118.50 C 69.90 118.57 61.74 118.35 53.59 118.62 C 52.79 115.16 52.60 111.59 51.73 108.14 C 48.72 95.83 39.90 85.04 28.43 79.67 L 28.48 79.02 Z" />
<path fill="#ffffff" opacity="1.00" d=" M 112.26 80.21 C 118.70 78.26 125.51 79.12 132.12 79.11 C 128.18 81.79 123.90 84.03 120.48 87.39 C 112.32 95.51 107.03 106.83 107.40 118.47 C 98.91 118.16 90.39 118.08 81.90 118.48 C 82.50 108.92 85.82 99.48 92.35 92.36 C 97.60 86.47 104.68 82.32 112.26 80.21 Z" />
<path fill="#ffffff" opacity="1.00" d=" M 42.44 101.88 C 42.23 99.56 41.00 97.48 40.27 95.30 C 44.16 97.94 45.68 102.57 47.16 106.80 C 48.46 110.56 48.96 114.54 49.11 118.50 C 45.04 118.48 40.96 118.55 36.89 118.44 C 38.49 112.84 41.07 107.55 42.44 101.88 Z" />
<path fill="#ffffff" opacity="1.00" d=" M 115.58 100.62 C 116.62 98.65 118.11 96.91 120.08 95.82 C 119.31 97.85 118.11 99.73 117.62 101.86 C 119.47 107.45 121.67 112.93 123.60 118.49 C 119.57 118.51 115.53 118.51 111.49 118.47 C 111.32 112.29 112.76 106.12 115.58 100.62 Z" />
</g>
<g id="#d8294fff">
<path fill="#d8294f" opacity="1.00" d=" M 69.48 1.74 C 88.18 -1.06 107.83 3.81 123.24 14.72 C 135.90 23.60 145.66 36.52 150.75 51.12 C 156.41 67.07 156.41 84.95 150.75 100.90 C 145.11 117.08 133.71 131.17 119.04 140.04 C 105.66 148.24 89.65 152.05 74.01 150.76 C 59.48 149.62 45.34 144.12 33.87 135.14 C 19.06 123.69 8.89 106.47 5.96 87.98 C 2.99 70.02 6.91 51.03 16.74 35.70 C 28.25 17.40 48.06 4.66 69.48 1.74 M 68.06 32.98 C 62.94 46.65 57.87 60.34 53.13 74.15 C 50.39 74.75 47.74 75.65 45.12 76.62 C 54.41 75.81 62.50 81.56 69.14 87.37 C 72.91 77.42 76.04 67.24 79.59 57.21 C 79.80 57.21 80.21 57.22 80.42 57.23 C 83.96 67.26 87.41 77.32 90.96 87.35 C 95.11 83.95 99.36 80.58 104.21 78.21 C 107.32 76.88 110.71 76.43 113.95 75.52 C 111.74 75.36 109.53 75.08 107.35 74.71 C 104.42 65.48 100.95 56.44 97.77 47.30 C 95.91 42.42 94.54 37.32 92.01 32.73 C 84.02 32.72 76.04 32.79 68.06 32.98 M 28.48 79.02 L 28.43 79.67 C 39.90 85.04 48.72 95.83 51.73 108.14 C 52.60 111.59 52.79 115.16 53.59 118.62 C 61.74 118.35 69.90 118.57 78.05 118.50 C 78.42 101.00 65.50 84.74 48.79 80.19 C 42.19 78.26 35.25 79.21 28.48 79.02 M 112.26 80.21 C 104.68 82.32 97.60 86.47 92.35 92.36 C 85.82 99.48 82.50 108.92 81.90 118.48 C 90.39 118.08 98.91 118.16 107.40 118.47 C 107.03 106.83 112.32 95.51 120.48 87.39 C 123.90 84.03 128.18 81.79 132.12 79.11 C 125.51 79.12 118.70 78.26 112.26 80.21 M 42.44 101.88 C 41.07 107.55 38.49 112.84 36.89 118.44 C 40.96 118.55 45.04 118.48 49.11 118.50 C 48.96 114.54 48.46 110.56 47.16 106.80 C 45.68 102.57 44.16 97.94 40.27 95.30 C 41.00 97.48 42.23 99.56 42.44 101.88 M 115.58 100.62 C 112.76 106.12 111.32 112.29 111.49 118.47 C 115.53 118.51 119.57 118.51 123.60 118.49 C 121.67 112.93 119.47 107.45 117.62 101.86 C 118.11 99.73 119.31 97.85 120.08 95.82 C 118.11 96.91 116.62 98.65 115.58 100.62 Z" />
</g>
</svg>
