<?xml version="1.0" encoding="UTF-8" ?>
<!DOCTYPE svg PUBLIC "-//W3C//DTD SVG 1.1//EN" "http://www.w3.org/Graphics/SVG/1.1/DTD/svg11.dtd">
<svg width="159pt" height="158pt" viewBox="0 0 159 158" version="1.1" xmlns="http://www.w3.org/2000/svg">
<g id="#ffffffff">
<path fill="#ffffff" opacity="1.00" d=" M 66.05 35.99 C 74.03 35.78 82.02 35.73 90.01 35.73 C 92.64 40.58 94.09 45.93 96.04 51.06 C 99.12 59.94 102.52 68.71 105.33 77.68 C 107.55 78.04 109.78 78.41 112.00 78.75 C 103.06 79.45 95.48 84.62 88.99 90.43 C 85.30 79.95 81.65 69.47 78.00 58.98 C 74.46 69.53 70.71 80.01 67.30 90.60 C 60.66 84.47 52.29 78.87 42.84 79.52 C 45.58 78.71 48.30 77.84 51.09 77.18 C 55.89 63.39 60.93 49.67 66.05 35.99 Z" />
<path fill="#ffffff" opacity="1.00" d=" M 25.76 82.00 C 32.73 82.26 39.87 81.21 46.68 83.16 C 63.45 87.68 76.42 103.96 76.05 121.50 C 67.85 121.52 59.64 121.47 51.43 121.52 C 50.61 115.30 49.79 108.93 46.90 103.26 C 42.68 93.90 34.71 86.74 25.76 82.00 Z" />
<path fill="#ffffff" opacity="1.00" d=" M 111.00 83.01 C 117.31 81.25 123.93 82.25 130.40 82.01 C 126.28 84.61 121.98 87.02 118.45 90.42 C 110.30 98.54 105.05 109.85 105.39 121.47 C 96.90 121.15 88.39 121.07 79.91 121.48 C 80.47 111.43 84.24 101.55 91.33 94.29 C 96.66 88.79 103.60 84.94 111.00 83.01 Z" />
<path fill="#ffffff" opacity="1.00" d=" M 40.46 104.81 C 40.17 102.51 39.01 100.43 38.24 98.26 C 42.10 100.91 43.67 105.48 45.13 109.70 C 46.46 113.49 46.94 117.51 47.12 121.50 C 43.04 121.50 38.97 121.50 34.89 121.50 C 36.47 115.84 39.09 110.53 40.46 104.81 Z" />
<path fill="#ffffff" opacity="1.00" d=" M 109.47 121.47 C 109.62 113.31 111.26 103.77 118.16 98.52 C 117.35 100.59 116.43 102.62 115.48 104.64 C 117.51 110.26 119.59 115.86 121.60 121.49 C 117.56 121.51 113.52 121.52 109.47 121.47 Z" />
</g>
<g id="#33022cff">
<path fill="#33022c" opacity="1.00" d=" M 66.55 4.87 C 80.97 2.63 96.02 4.73 109.28 10.83 C 125.69 18.29 139.17 31.91 146.47 48.39 C 153.12 63.19 154.77 80.17 151.05 95.96 C 147.21 112.77 137.32 128.12 123.59 138.55 C 110.63 148.54 94.31 154.05 77.95 154.00 C 61.65 154.03 45.40 148.54 32.48 138.60 C 18.41 127.95 8.39 112.14 4.70 94.89 C 0.76 77.00 3.73 57.72 12.85 41.85 C 23.89 22.19 44.26 8.19 66.55 4.87 M 66.05 35.99 C 60.93 49.67 55.89 63.39 51.09 77.18 C 48.30 77.84 45.58 78.71 42.84 79.52 C 52.29 78.87 60.66 84.47 67.30 90.60 C 70.71 80.01 74.46 69.53 78.00 58.98 C 81.65 69.47 85.30 79.95 88.99 90.43 C 95.48 84.62 103.06 79.45 112.00 78.75 C 109.78 78.41 107.55 78.04 105.33 77.68 C 102.52 68.71 99.12 59.94 96.04 51.06 C 94.09 45.93 92.64 40.58 90.01 35.73 C 82.02 35.73 74.03 35.78 66.05 35.99 M 25.76 82.00 C 34.71 86.74 42.68 93.90 46.90 103.26 C 49.79 108.93 50.61 115.30 51.43 121.52 C 59.64 121.47 67.85 121.52 76.05 121.50 C 76.42 103.96 63.45 87.68 46.68 83.16 C 39.87 81.21 32.73 82.26 25.76 82.00 M 111.00 83.01 C 103.60 84.94 96.66 88.79 91.33 94.29 C 84.24 101.55 80.47 111.43 79.91 121.48 C 88.39 121.07 96.90 121.15 105.39 121.47 C 105.05 109.85 110.30 98.54 118.45 90.42 C 121.98 87.02 126.28 84.61 130.40 82.01 C 123.93 82.25 117.31 81.25 111.00 83.01 M 40.46 104.81 C 39.09 110.53 36.47 115.84 34.89 121.50 C 38.97 121.50 43.04 121.50 47.12 121.50 C 46.94 117.51 46.46 113.49 45.13 109.70 C 43.67 105.48 42.10 100.91 38.24 98.26 C 39.01 100.43 40.17 102.51 40.46 104.81 M 109.47 121.47 C 113.52 121.52 117.56 121.51 121.60 121.49 C 119.59 115.86 117.51 110.26 115.48 104.64 C 116.43 102.62 117.35 100.59 118.16 98.52 C 111.26 103.77 109.62 113.31 109.47 121.47 Z" />
</g>
</svg>
