<?xml version="1.0" encoding="UTF-8" ?>
<!DOCTYPE svg PUBLIC "-//W3C//DTD SVG 1.1//EN" "http://www.w3.org/Graphics/SVG/1.1/DTD/svg11.dtd">
<svg width="159pt" height="158pt" viewBox="0 0 159 158" version="1.1" xmlns="http://www.w3.org/2000/svg">
<g id="#ffffffff">
<path fill="#ffffff" opacity="1.00" d=" M 65.05 34.98 C 73.04 34.79 81.02 34.72 89.00 34.73 C 91.55 39.33 92.91 44.43 94.78 49.32 C 97.94 58.43 101.43 67.44 104.32 76.65 C 106.58 77.04 108.85 77.46 111.11 77.91 C 102.21 78.31 94.45 83.45 88.24 89.45 C 84.04 79.14 80.81 68.44 77.00 57.98 C 73.46 68.53 69.72 79.01 66.30 89.60 C 59.61 83.43 51.16 77.77 41.64 78.54 C 44.46 77.78 47.22 76.83 50.08 76.21 C 54.89 62.40 59.92 48.67 65.05 34.98 Z" />
<path fill="#ffffff" opacity="1.00" d=" M 24.70 80.99 C 31.72 81.28 38.93 80.19 45.78 82.19 C 62.49 86.74 75.43 103.00 75.05 120.50 C 66.82 120.49 58.60 120.53 50.38 120.48 C 49.66 114.27 48.77 107.94 45.92 102.29 C 41.69 92.92 33.71 85.69 24.70 80.99 Z" />
<path fill="#ffffff" opacity="1.00" d=" M 109.25 82.22 C 115.78 80.18 122.69 81.27 129.40 81.00 C 125.10 83.74 120.54 86.25 116.94 89.93 C 109.11 98.01 104.03 109.08 104.41 120.47 C 95.92 120.18 87.40 120.04 78.91 120.49 C 79.53 111.91 82.03 103.27 87.58 96.55 C 92.88 89.47 100.79 84.58 109.25 82.22 Z" />
<path fill="#ffffff" opacity="1.00" d=" M 37.22 97.28 C 41.12 99.88 42.65 104.49 44.13 108.69 C 45.45 112.49 45.96 116.50 46.11 120.50 C 42.04 120.50 37.96 120.51 33.89 120.49 C 35.48 114.83 38.10 109.50 39.47 103.77 C 39.16 101.49 37.99 99.43 37.22 97.28 Z" />
<path fill="#ffffff" opacity="1.00" d=" M 108.47 120.46 C 108.62 112.25 110.30 102.69 117.25 97.43 C 116.39 99.54 115.30 101.55 114.58 103.71 C 116.43 109.36 118.66 114.88 120.60 120.49 C 116.56 120.50 112.51 120.53 108.47 120.46 Z" />
</g>
<g id="#1a3f02ff">
<path fill="#1a3f02" opacity="1.00" d=" M 65.62 3.86 C 82.67 1.21 100.60 4.69 115.40 13.58 C 129.45 21.89 140.61 34.96 146.63 50.14 C 152.32 64.27 153.53 80.16 150.05 94.99 C 146.19 111.82 136.28 127.19 122.51 137.61 C 109.84 147.34 93.98 152.81 78.00 152.99 C 61.57 153.25 45.10 147.89 31.99 137.99 C 19.48 128.67 10.06 115.31 5.43 100.42 C -0.19 82.69 1.16 62.90 9.11 46.10 C 19.40 23.79 41.31 7.41 65.62 3.86 M 65.05 34.98 C 59.92 48.67 54.89 62.40 50.08 76.21 C 47.22 76.83 44.46 77.78 41.64 78.54 C 51.16 77.77 59.61 83.43 66.30 89.60 C 69.72 79.01 73.46 68.53 77.00 57.98 C 80.81 68.44 84.04 79.14 88.24 89.45 C 94.45 83.45 102.21 78.31 111.11 77.91 C 108.85 77.46 106.58 77.04 104.32 76.65 C 101.43 67.44 97.94 58.43 94.78 49.32 C 92.91 44.43 91.55 39.33 89.00 34.73 C 81.02 34.72 73.04 34.79 65.05 34.98 M 24.70 80.99 C 33.71 85.69 41.69 92.92 45.92 102.29 C 48.77 107.94 49.66 114.27 50.38 120.48 C 58.60 120.53 66.82 120.49 75.05 120.50 C 75.43 103.00 62.49 86.74 45.78 82.19 C 38.93 80.19 31.72 81.28 24.70 80.99 M 109.25 82.22 C 100.79 84.58 92.88 89.47 87.58 96.55 C 82.03 103.27 79.53 111.91 78.91 120.49 C 87.40 120.04 95.92 120.18 104.41 120.47 C 104.03 109.08 109.11 98.01 116.94 89.93 C 120.54 86.25 125.10 83.74 129.40 81.00 C 122.69 81.27 115.78 80.18 109.25 82.22 M 37.22 97.28 C 37.99 99.43 39.16 101.49 39.47 103.77 C 38.10 109.50 35.48 114.83 33.89 120.49 C 37.96 120.51 42.04 120.50 46.11 120.50 C 45.96 116.50 45.45 112.49 44.13 108.69 C 42.65 104.49 41.12 99.88 37.22 97.28 M 108.47 120.46 C 112.51 120.53 116.56 120.50 120.60 120.49 C 118.66 114.88 116.43 109.36 114.58 103.71 C 115.30 101.55 116.39 99.54 117.25 97.43 C 110.30 102.69 108.62 112.25 108.47 120.46 Z" />
</g>
</svg>
