<?xml version="1.0" encoding="UTF-8" ?>
<!DOCTYPE svg PUBLIC "-//W3C//DTD SVG 1.1//EN" "http://www.w3.org/Graphics/SVG/1.1/DTD/svg11.dtd">
<svg width="158pt" height="158pt" viewBox="0 0 158 158" version="1.1" xmlns="http://www.w3.org/2000/svg">
<g id="#ffffffff">
<path fill="#ffffff" opacity="1.00" d=" M 68.05 32.99 C 76.03 32.78 84.02 32.72 92.00 32.73 C 94.53 37.30 95.90 42.38 97.75 47.24 C 100.92 56.38 104.41 65.42 107.32 74.65 C 109.58 75.04 111.83 75.45 114.07 75.92 C 105.02 76.21 97.54 81.75 90.95 87.40 C 87.32 76.92 83.63 66.46 80.00 55.97 C 76.46 66.52 72.72 77.01 69.30 87.60 C 62.63 81.43 54.23 75.86 44.74 76.49 C 47.52 75.75 50.26 74.84 53.07 74.21 C 57.89 60.41 62.92 46.67 68.05 32.99 Z" />
<path fill="#ffffff" opacity="1.00" d=" M 27.69 78.99 C 34.71 79.28 41.91 78.19 48.76 80.18 C 65.48 84.73 78.42 100.99 78.05 118.50 C 69.83 118.51 61.62 118.50 53.40 118.50 C 52.64 112.26 51.77 105.88 48.88 100.21 C 44.64 90.87 36.68 83.67 27.69 78.99 Z" />
<path fill="#ffffff" opacity="1.00" d=" M 112.30 80.20 C 118.81 78.22 125.69 79.21 132.38 79.05 C 128.25 81.62 123.94 84.04 120.42 87.45 C 112.28 95.57 107.05 106.88 107.38 118.49 C 98.90 118.14 90.39 118.07 81.91 118.49 C 82.51 109.67 85.22 100.85 90.99 94.01 C 96.30 87.21 104.04 82.51 112.30 80.20 Z" />
<path fill="#ffffff" opacity="1.00" d=" M 42.48 101.75 C 42.12 99.47 41.01 97.41 40.23 95.27 C 44.13 97.89 45.66 102.50 47.14 106.72 C 48.45 110.51 48.96 114.51 49.11 118.50 C 45.04 118.50 40.96 118.50 36.89 118.50 C 38.48 112.82 41.11 107.48 42.48 101.75 Z" />
<path fill="#ffffff" opacity="1.00" d=" M 111.49 118.48 C 111.59 110.27 113.30 100.72 120.23 95.44 C 119.38 97.53 118.44 99.59 117.47 101.63 C 119.50 107.25 121.59 112.86 123.60 118.49 C 119.56 118.51 115.53 118.51 111.49 118.48 Z" />
</g>
<g id="#791306ff">
<path fill="#791306" opacity="1.00" d=" M 68.56 1.87 C 85.42 -0.77 103.14 2.59 117.84 11.24 C 131.96 19.44 143.22 32.40 149.38 47.51 C 155.28 61.79 156.59 77.92 153.05 92.96 C 149.20 109.78 139.31 125.14 125.56 135.57 C 112.63 145.53 96.34 151.03 80.02 151.00 C 63.89 151.04 47.81 145.69 34.94 135.95 C 22.65 126.79 13.35 113.71 8.65 99.12 C 2.86 81.46 4.01 61.67 11.80 44.79 C 21.94 22.16 44.02 5.47 68.56 1.87 M 68.05 32.99 C 62.92 46.67 57.89 60.41 53.07 74.21 C 50.26 74.84 47.52 75.75 44.74 76.49 C 54.23 75.86 62.63 81.43 69.30 87.60 C 72.72 77.01 76.46 66.52 80.00 55.97 C 83.63 66.46 87.32 76.92 90.95 87.40 C 97.54 81.75 105.02 76.21 114.07 75.92 C 111.83 75.45 109.58 75.04 107.32 74.65 C 104.41 65.42 100.92 56.38 97.75 47.24 C 95.90 42.38 94.53 37.30 92.00 32.73 C 84.02 32.72 76.03 32.78 68.05 32.99 M 27.69 78.99 C 36.68 83.67 44.64 90.87 48.88 100.21 C 51.77 105.88 52.64 112.26 53.40 118.50 C 61.62 118.50 69.83 118.51 78.05 118.50 C 78.42 100.99 65.48 84.73 48.76 80.18 C 41.91 78.19 34.71 79.28 27.69 78.99 M 112.30 80.20 C 104.04 82.51 96.30 87.21 90.99 94.01 C 85.22 100.85 82.51 109.67 81.91 118.49 C 90.39 118.07 98.90 118.14 107.38 118.49 C 107.05 106.88 112.28 95.57 120.42 87.45 C 123.94 84.04 128.25 81.62 132.38 79.05 C 125.69 79.21 118.81 78.22 112.30 80.20 M 42.48 101.75 C 41.11 107.48 38.48 112.82 36.89 118.50 C 40.96 118.50 45.04 118.50 49.11 118.50 C 48.96 114.51 48.45 110.51 47.14 106.72 C 45.66 102.50 44.13 97.89 40.23 95.27 C 41.01 97.41 42.12 99.47 42.48 101.75 M 111.49 118.48 C 115.53 118.51 119.56 118.51 123.60 118.49 C 121.59 112.86 119.50 107.25 117.47 101.63 C 118.44 99.59 119.38 97.53 120.23 95.44 C 113.30 100.72 111.59 110.27 111.49 118.48 Z" />
</g>
</svg>
