<?xml version="1.0" encoding="UTF-8" ?>
<!DOCTYPE svg PUBLIC "-//W3C//DTD SVG 1.1//EN" "http://www.w3.org/Graphics/SVG/1.1/DTD/svg11.dtd">
<svg width="162pt" height="157pt" viewBox="0 0 162 157" version="1.1" xmlns="http://www.w3.org/2000/svg">
<g id="#ffffffff">
<path fill="#ffffff" opacity="1.00" d=" M 67.05 33.99 C 75.03 33.78 83.02 33.73 91.01 33.73 C 93.76 38.82 95.26 44.45 97.32 49.82 C 100.29 58.44 103.61 66.95 106.31 75.66 C 108.19 75.97 110.07 76.30 111.94 76.67 L 112.30 75.52 C 112.34 76.08 112.35 76.64 112.38 77.21 C 103.57 77.19 96.36 83.03 89.99 88.43 C 86.31 77.95 82.64 67.47 79.00 56.97 C 75.47 67.53 71.71 78.01 68.31 88.60 C 61.60 82.40 53.14 76.82 43.61 77.49 C 46.45 76.80 49.22 75.86 52.07 75.20 C 56.90 61.40 61.92 47.67 67.05 33.99 Z" />
<path fill="#ffffff" opacity="1.00" d=" M 26.69 79.99 C 33.73 80.28 40.94 79.19 47.81 81.19 C 64.51 85.76 77.42 102.01 77.05 119.50 C 68.84 119.50 60.62 119.50 52.40 119.50 C 51.64 113.26 50.77 106.88 47.88 101.21 C 43.64 91.87 35.68 84.68 26.69 79.99 Z" />
<path fill="#ffffff" opacity="1.00" d=" M 112.02 81.00 C 118.34 79.25 124.95 80.26 131.41 80.00 C 127.30 82.60 122.99 85.01 119.46 88.40 C 111.30 96.53 106.05 107.85 106.38 119.48 C 97.90 119.15 89.39 119.06 80.91 119.48 C 81.49 110.18 84.62 100.95 90.88 93.91 C 96.33 87.51 103.93 83.12 112.02 81.00 Z" />
<path fill="#ffffff" opacity="1.00" d=" M 39.24 96.28 C 43.10 98.91 44.67 103.48 46.13 107.71 C 47.45 111.50 47.95 115.51 48.12 119.50 C 44.04 119.50 39.96 119.50 35.88 119.50 C 37.48 113.83 40.09 108.51 41.47 102.78 C 41.15 100.50 40.01 98.43 39.24 96.28 Z" />
<path fill="#ffffff" opacity="1.00" d=" M 110.47 119.47 C 110.60 111.24 112.32 101.70 119.26 96.38 C 118.39 98.48 117.47 100.55 116.47 102.60 C 118.49 108.24 120.59 113.85 122.60 119.49 C 118.56 119.51 114.52 119.52 110.47 119.47 Z" />
</g>
<g id="#0f023fff">
<path fill="#0f023f" opacity="1.00" d=" M 68.51 2.73 C 85.08 0.36 102.40 3.76 116.83 12.24 C 131.14 20.54 142.52 33.74 148.62 49.11 C 154.32 63.24 155.54 79.13 152.05 93.96 C 148.20 110.79 138.30 126.16 124.54 136.59 C 111.36 146.73 94.70 152.24 78.07 152.00 C 62.06 151.83 46.15 146.35 33.45 136.58 C 19.40 125.94 9.39 110.14 5.71 92.90 C 1.86 75.47 4.57 56.72 13.16 41.08 C 24.20 20.51 45.38 5.85 68.51 2.73 M 67.05 33.99 C 61.92 47.67 56.90 61.40 52.07 75.20 C 49.22 75.86 46.45 76.80 43.61 77.49 C 53.14 76.82 61.60 82.40 68.31 88.60 C 71.71 78.01 75.47 67.53 79.00 56.97 C 82.64 67.47 86.31 77.95 89.99 88.43 C 96.36 83.03 103.57 77.19 112.38 77.21 C 112.35 76.64 112.34 76.08 112.30 75.52 L 111.94 76.67 C 110.07 76.30 108.19 75.97 106.31 75.66 C 103.61 66.95 100.29 58.44 97.32 49.82 C 95.26 44.45 93.76 38.82 91.01 33.73 C 83.02 33.73 75.03 33.78 67.05 33.99 M 26.69 79.99 C 35.68 84.68 43.64 91.87 47.88 101.21 C 50.77 106.88 51.64 113.26 52.40 119.50 C 60.62 119.50 68.84 119.50 77.05 119.50 C 77.42 102.01 64.51 85.76 47.81 81.19 C 40.94 79.19 33.73 80.28 26.69 79.99 M 112.02 81.00 C 103.93 83.12 96.33 87.51 90.88 93.91 C 84.62 100.95 81.49 110.18 80.91 119.48 C 89.39 119.06 97.90 119.15 106.38 119.48 C 106.05 107.85 111.30 96.53 119.46 88.40 C 122.99 85.01 127.30 82.60 131.41 80.00 C 124.95 80.26 118.34 79.25 112.02 81.00 M 39.24 96.28 C 40.01 98.43 41.15 100.50 41.47 102.78 C 40.09 108.51 37.48 113.83 35.88 119.50 C 39.96 119.50 44.04 119.50 48.12 119.50 C 47.95 115.51 47.45 111.50 46.13 107.71 C 44.67 103.48 43.10 98.91 39.24 96.28 M 110.47 119.47 C 114.52 119.52 118.56 119.51 122.60 119.49 C 120.59 113.85 118.49 108.24 116.47 102.60 C 117.47 100.55 118.39 98.48 119.26 96.38 C 112.32 101.70 110.60 111.24 110.47 119.47 Z" />
</g>
</svg>
