<?xml version="1.0" encoding="UTF-8" ?>
<!DOCTYPE svg PUBLIC "-//W3C//DTD SVG 1.1//EN" "http://www.w3.org/Graphics/SVG/1.1/DTD/svg11.dtd">
<svg width="159pt" height="158pt" viewBox="0 0 159 158" version="1.1" xmlns="http://www.w3.org/2000/svg">
<g id="#ffffffff">
<path fill="#ffffff" opacity="1.00" d=" M 66.05 33.99 C 74.04 33.78 82.02 33.73 90.01 33.73 C 92.64 38.55 94.07 43.88 96.02 48.99 C 99.10 57.88 102.49 66.68 105.33 75.65 C 107.57 76.05 109.81 76.45 112.05 76.88 C 103.05 77.29 95.49 82.68 88.99 88.44 C 85.30 77.96 81.65 67.47 78.00 56.98 C 74.46 67.53 70.73 78.01 67.29 88.59 C 60.61 82.41 52.19 76.86 42.68 77.48 C 45.48 76.75 48.24 75.87 51.06 75.20 C 55.90 61.41 60.91 47.67 66.05 33.99 Z" />
<path fill="#ffffff" opacity="1.00" d=" M 25.69 79.99 C 32.70 80.28 39.88 79.20 46.73 81.17 C 63.47 85.71 76.42 101.98 76.05 119.50 C 67.83 119.49 59.61 119.52 51.38 119.48 C 50.66 113.27 49.77 106.93 46.91 101.27 C 42.67 91.90 34.70 84.69 25.69 79.99 Z" />
<path fill="#ffffff" opacity="1.00" d=" M 110.35 81.19 C 116.86 79.19 123.73 80.27 130.41 80.00 C 126.29 82.61 121.97 85.02 118.43 88.44 C 110.29 96.55 105.04 107.87 105.39 119.48 C 96.91 119.14 88.39 119.08 79.91 119.48 C 80.47 109.44 84.23 99.56 91.32 92.30 C 96.50 86.96 103.19 83.16 110.35 81.19 Z" />
<path fill="#ffffff" opacity="1.00" d=" M 38.23 96.28 C 42.10 98.90 43.66 103.46 45.12 107.67 C 46.45 111.47 46.94 115.49 47.12 119.50 C 43.04 119.50 38.97 119.50 34.89 119.50 C 36.46 113.85 39.09 108.55 40.44 102.85 C 40.24 100.53 38.98 98.46 38.23 96.28 Z" />
<path fill="#ffffff" opacity="1.00" d=" M 109.47 119.47 C 109.60 111.24 111.32 101.70 118.25 96.40 C 117.39 98.50 116.45 100.57 115.47 102.62 C 117.50 108.25 119.59 113.86 121.60 119.49 C 117.56 119.51 113.52 119.51 109.47 119.47 Z" />
</g>
<g id="#792a06ff">
<path fill="#792a06" opacity="1.00" d=" M 67.43 2.74 C 84.24 0.31 101.84 3.84 116.41 12.58 C 130.45 20.89 141.60 33.95 147.62 49.12 C 153.32 63.27 154.54 79.17 151.04 94.02 C 147.18 110.81 137.30 126.14 123.58 136.56 C 112.23 145.29 98.32 150.62 84.05 151.76 C 68.14 153.08 51.86 149.13 38.34 140.66 C 23.96 131.76 12.79 117.82 7.24 101.85 C 1.06 84.47 1.67 64.81 8.90 47.84 C 18.74 23.92 41.80 6.16 67.43 2.74 M 66.05 33.99 C 60.91 47.67 55.90 61.41 51.06 75.20 C 48.24 75.87 45.48 76.75 42.68 77.48 C 52.19 76.86 60.61 82.41 67.29 88.59 C 70.73 78.01 74.46 67.53 78.00 56.98 C 81.65 67.47 85.30 77.96 88.99 88.44 C 95.49 82.68 103.05 77.29 112.05 76.88 C 109.81 76.45 107.57 76.05 105.33 75.65 C 102.49 66.68 99.10 57.88 96.02 48.99 C 94.07 43.88 92.64 38.55 90.01 33.73 C 82.02 33.73 74.04 33.78 66.05 33.99 M 25.69 79.99 C 34.70 84.69 42.67 91.90 46.91 101.27 C 49.77 106.93 50.66 113.27 51.38 119.48 C 59.61 119.52 67.83 119.49 76.05 119.50 C 76.42 101.98 63.47 85.71 46.73 81.17 C 39.88 79.20 32.70 80.28 25.69 79.99 M 110.35 81.19 C 103.19 83.16 96.50 86.96 91.32 92.30 C 84.23 99.56 80.47 109.44 79.91 119.48 C 88.39 119.08 96.91 119.14 105.39 119.48 C 105.04 107.87 110.29 96.55 118.43 88.44 C 121.97 85.02 126.29 82.61 130.41 80.00 C 123.73 80.27 116.86 79.19 110.35 81.19 M 38.23 96.28 C 38.98 98.46 40.24 100.53 40.44 102.85 C 39.09 108.55 36.46 113.85 34.89 119.50 C 38.97 119.50 43.04 119.50 47.12 119.50 C 46.94 115.49 46.45 111.47 45.12 107.67 C 43.66 103.46 42.10 98.90 38.23 96.28 M 109.47 119.47 C 113.52 119.51 117.56 119.51 121.60 119.49 C 119.59 113.86 117.50 108.25 115.47 102.62 C 116.45 100.57 117.39 98.50 118.25 96.40 C 111.32 101.70 109.60 111.24 109.47 119.47 Z" />
</g>
</svg>
