<?xml version="1.0" encoding="UTF-8" ?>
<!DOCTYPE svg PUBLIC "-//W3C//DTD SVG 1.1//EN" "http://www.w3.org/Graphics/SVG/1.1/DTD/svg11.dtd">
<svg width="162pt" height="157pt" viewBox="0 0 162 157" version="1.1" xmlns="http://www.w3.org/2000/svg">
<g id="#ffffffff">
<path fill="#ffffff" opacity="1.00" d=" M 70.06 35.99 C 78.04 35.78 86.02 35.72 94.00 35.73 C 96.32 39.83 97.57 44.40 99.23 48.78 C 102.57 58.41 106.24 67.93 109.32 77.65 C 111.59 78.04 113.87 78.46 116.13 78.93 C 107.19 79.25 99.49 84.51 93.19 90.43 C 89.08 80.10 85.77 69.44 82.00 58.97 C 78.47 69.53 74.71 80.01 71.31 90.60 C 64.63 84.41 56.20 78.89 46.70 79.45 C 49.50 78.75 52.26 77.86 55.08 77.21 C 59.89 63.40 64.91 49.67 70.06 35.99 Z" />
<path fill="#ffffff" opacity="1.00" d=" M 29.69 82.00 C 36.72 82.28 43.93 81.19 50.78 83.19 C 67.49 87.74 80.42 104.00 80.05 121.50 C 71.83 121.51 63.62 121.50 55.40 121.50 C 54.63 115.26 53.78 108.88 50.88 103.22 C 46.65 93.88 38.69 86.68 29.69 82.00 Z" />
<path fill="#ffffff" opacity="1.00" d=" M 94.78 94.88 C 101.30 87.87 110.38 83.35 119.85 82.08 C 124.70 81.86 129.56 82.07 134.41 82.00 C 130.29 84.61 125.98 87.02 122.44 90.42 C 114.30 98.54 109.04 109.85 109.39 121.47 C 100.91 121.18 92.39 121.04 83.92 121.49 C 84.46 111.71 88.01 102.07 94.78 94.88 Z" />
<path fill="#ffffff" opacity="1.00" d=" M 44.42 104.95 C 44.34 102.60 42.96 100.49 42.23 98.28 C 46.12 100.87 47.64 105.47 49.12 109.67 C 50.44 113.47 50.96 117.49 51.11 121.50 C 47.04 121.50 42.96 121.51 38.89 121.50 C 40.45 115.89 43.05 110.61 44.42 104.95 Z" />
<path fill="#ffffff" opacity="1.00" d=" M 113.48 121.47 C 113.59 113.25 115.31 103.69 122.25 98.41 C 121.39 100.50 120.46 102.57 119.47 104.60 C 121.49 110.24 123.59 115.85 125.60 121.49 C 121.56 121.51 117.52 121.52 113.48 121.47 Z" />
</g>
<g id="#2c023fff">
<path fill="#2c023f" opacity="1.00" d=" M 70.49 4.88 C 87.34 2.23 105.05 5.56 119.76 14.20 C 134.13 22.50 145.54 35.76 151.65 51.19 C 158.25 67.55 158.76 86.26 153.07 102.96 C 147.91 118.40 137.54 132.04 124.03 141.12 C 110.06 150.62 92.81 155.17 75.97 153.76 C 58.41 152.39 41.41 144.57 29.00 132.06 C 16.46 119.65 8.62 102.64 7.25 85.06 C 5.70 66.77 11.21 48.00 22.42 33.46 C 33.95 18.20 51.59 7.76 70.49 4.88 M 70.06 35.99 C 64.91 49.67 59.89 63.40 55.08 77.21 C 52.26 77.86 49.50 78.75 46.70 79.45 C 56.20 78.89 64.63 84.41 71.31 90.60 C 74.71 80.01 78.47 69.53 82.00 58.97 C 85.77 69.44 89.08 80.10 93.19 90.43 C 99.49 84.51 107.19 79.25 116.13 78.93 C 113.87 78.46 111.59 78.04 109.32 77.65 C 106.24 67.93 102.57 58.41 99.23 48.78 C 97.57 44.40 96.32 39.83 94.00 35.73 C 86.02 35.72 78.04 35.78 70.06 35.99 M 29.69 82.00 C 38.69 86.68 46.65 93.88 50.88 103.22 C 53.78 108.88 54.63 115.26 55.40 121.50 C 63.62 121.50 71.83 121.51 80.05 121.50 C 80.42 104.00 67.49 87.74 50.78 83.19 C 43.93 81.19 36.72 82.28 29.69 82.00 M 94.78 94.88 C 88.01 102.07 84.46 111.71 83.92 121.49 C 92.39 121.04 100.91 121.18 109.39 121.47 C 109.04 109.85 114.30 98.54 122.44 90.42 C 125.98 87.02 130.29 84.61 134.41 82.00 C 129.56 82.07 124.70 81.86 119.85 82.08 C 110.38 83.35 101.30 87.87 94.78 94.88 M 44.42 104.95 C 43.05 110.61 40.45 115.89 38.89 121.50 C 42.96 121.51 47.04 121.50 51.11 121.50 C 50.96 117.49 50.44 113.47 49.12 109.67 C 47.64 105.47 46.12 100.87 42.23 98.28 C 42.96 100.49 44.34 102.60 44.42 104.95 M 113.48 121.47 C 117.52 121.52 121.56 121.51 125.60 121.49 C 123.59 115.85 121.49 110.24 119.47 104.60 C 120.46 102.57 121.39 100.50 122.25 98.41 C 115.31 103.69 113.59 113.25 113.48 121.47 Z" />
</g>
</svg>
