<?xml version="1.0" encoding="UTF-8" ?>
<!DOCTYPE svg PUBLIC "-//W3C//DTD SVG 1.1//EN" "http://www.w3.org/Graphics/SVG/1.1/DTD/svg11.dtd">
<svg width="159pt" height="158pt" viewBox="0 0 159 158" version="1.1" xmlns="http://www.w3.org/2000/svg">
<g id="#ffffffff">
<path fill="#ffffff" opacity="1.00" d=" M 67.05 34.98 C 75.03 34.78 83.02 34.72 91.00 34.73 C 93.32 38.85 94.58 43.42 96.24 47.82 C 99.58 57.43 103.25 66.94 106.32 76.65 C 108.59 77.03 110.84 77.47 113.10 77.92 C 104.20 78.29 96.46 83.46 90.24 89.45 C 86.04 79.14 82.80 68.44 79.00 57.97 C 75.47 68.53 71.72 79.01 68.30 89.60 C 61.63 83.45 53.22 77.81 43.72 78.53 C 46.50 77.75 49.25 76.83 52.07 76.21 C 56.89 62.40 61.92 48.67 67.05 34.98 Z" />
<path fill="#ffffff" opacity="1.00" d=" M 26.69 80.99 C 33.71 81.28 40.90 80.19 47.75 82.18 C 64.48 86.72 77.43 102.99 77.04 120.50 C 68.83 120.50 60.61 120.50 52.40 120.50 C 51.64 114.28 50.78 107.92 47.90 102.26 C 43.67 92.90 35.70 85.68 26.69 80.99 Z" />
<path fill="#ffffff" opacity="1.00" d=" M 111.30 82.20 C 117.82 80.18 124.71 81.27 131.41 81.00 C 127.11 83.73 122.56 86.24 118.95 89.91 C 111.11 98.00 106.02 109.08 106.41 120.47 C 97.92 120.18 89.40 120.04 80.91 120.49 C 81.50 111.42 84.42 102.40 90.43 95.46 C 95.74 88.96 103.26 84.44 111.30 82.20 Z" />
<path fill="#ffffff" opacity="1.00" d=" M 39.23 97.29 C 43.14 99.89 44.66 104.52 46.14 108.73 C 47.45 112.51 47.96 116.51 48.11 120.50 C 44.04 120.50 39.96 120.50 35.89 120.50 C 37.47 114.84 40.10 109.52 41.46 103.80 C 41.19 101.50 39.99 99.45 39.23 97.29 Z" />
<path fill="#ffffff" opacity="1.00" d=" M 110.49 120.48 C 110.58 112.26 112.31 102.69 119.25 97.42 C 118.39 99.51 117.45 101.57 116.47 103.61 C 118.50 109.24 120.59 114.85 122.60 120.49 C 118.56 120.51 114.53 120.51 110.49 120.48 Z" />
</g>
<g id="#023f32ff">
<path fill="#023f32" opacity="1.00" d=" M 67.46 3.89 C 84.57 1.18 102.58 4.67 117.43 13.59 C 131.48 21.92 142.64 35.00 148.65 50.19 C 154.33 64.31 155.53 80.19 152.04 95.01 C 148.14 112.03 138.04 127.55 124.03 137.98 C 111.98 147.07 97.12 152.35 82.05 152.94 C 67.35 153.56 52.49 149.72 39.95 142.03 C 25.26 133.15 13.85 119.03 8.22 102.81 C 2.32 86.14 2.62 67.38 9.06 50.91 C 18.32 26.31 41.45 7.70 67.46 3.89 M 67.05 34.98 C 61.92 48.67 56.89 62.40 52.07 76.21 C 49.25 76.83 46.50 77.75 43.72 78.53 C 53.22 77.81 61.63 83.45 68.30 89.60 C 71.72 79.01 75.47 68.53 79.00 57.97 C 82.80 68.44 86.04 79.14 90.24 89.45 C 96.46 83.46 104.20 78.29 113.10 77.92 C 110.84 77.47 108.59 77.03 106.32 76.65 C 103.25 66.94 99.58 57.43 96.24 47.82 C 94.58 43.42 93.32 38.85 91.00 34.73 C 83.02 34.72 75.03 34.78 67.05 34.98 M 26.69 80.99 C 35.70 85.68 43.67 92.90 47.90 102.26 C 50.78 107.92 51.64 114.28 52.40 120.50 C 60.61 120.50 68.83 120.50 77.04 120.50 C 77.43 102.99 64.48 86.72 47.75 82.18 C 40.90 80.19 33.71 81.28 26.69 80.99 M 111.30 82.20 C 103.26 84.44 95.74 88.96 90.43 95.46 C 84.42 102.40 81.50 111.42 80.91 120.49 C 89.40 120.04 97.92 120.18 106.41 120.47 C 106.02 109.08 111.11 98.00 118.95 89.91 C 122.56 86.24 127.11 83.73 131.41 81.00 C 124.71 81.27 117.82 80.18 111.30 82.20 M 39.23 97.29 C 39.99 99.45 41.19 101.50 41.46 103.80 C 40.10 109.52 37.47 114.84 35.89 120.50 C 39.96 120.50 44.04 120.50 48.11 120.50 C 47.96 116.51 47.45 112.51 46.14 108.73 C 44.66 104.52 43.14 99.89 39.23 97.29 M 110.49 120.48 C 114.53 120.51 118.56 120.51 122.60 120.49 C 120.59 114.85 118.50 109.24 116.47 103.61 C 117.45 101.57 118.39 99.51 119.25 97.42 C 112.31 102.69 110.58 112.26 110.49 120.48 Z" />
</g>
</svg>
