<?xml version="1.0" encoding="UTF-8" ?>
<!DOCTYPE svg PUBLIC "-//W3C//DTD SVG 1.1//EN" "http://www.w3.org/Graphics/SVG/1.1/DTD/svg11.dtd">
<svg width="158pt" height="160pt" viewBox="0 0 158 160" version="1.1" xmlns="http://www.w3.org/2000/svg">
<g id="#ffffffff">
<path fill="#ffffff" opacity="1.00" d=" M 64.04 35.99 C 72.03 35.78 80.03 35.71 88.02 35.74 C 90.53 40.33 91.91 45.40 93.76 50.26 C 96.94 59.42 100.43 68.47 103.34 77.72 C 105.46 78.07 107.60 78.30 109.75 78.43 C 106.85 79.99 103.19 79.58 100.24 81.20 C 95.54 83.65 91.03 86.61 87.30 90.41 C 82.91 80.24 79.98 69.44 75.94 59.11 C 72.42 69.59 68.78 80.04 65.27 90.53 C 58.64 84.52 50.45 78.98 41.10 79.48 C 43.77 78.65 46.43 77.81 49.15 77.12 C 53.85 63.32 58.96 49.66 64.04 35.99 Z" />
<path fill="#ffffff" opacity="1.00" d=" M 24.06 82.12 C 31.68 82.08 39.59 81.16 46.91 83.84 C 62.60 89.13 74.39 104.75 74.05 121.50 C 65.87 121.55 57.68 121.41 49.50 121.57 C 48.55 115.32 47.82 108.89 44.87 103.19 C 40.71 93.94 32.83 86.93 24.06 82.12 Z" />
<path fill="#ffffff" opacity="1.00" d=" M 108.21 83.22 C 114.72 81.24 121.60 82.14 128.29 82.10 C 124.20 84.66 119.93 87.05 116.44 90.43 C 108.30 98.55 103.04 109.86 103.40 121.47 C 94.92 121.18 86.41 121.02 77.95 121.52 C 78.43 112.18 81.64 102.95 87.89 95.90 C 93.16 89.72 100.43 85.41 108.21 83.22 Z" />
<path fill="#ffffff" opacity="1.00" d=" M 38.44 104.89 C 38.24 102.55 36.98 100.46 36.24 98.26 C 40.13 100.93 41.68 105.54 43.16 109.79 C 44.46 113.55 44.95 117.53 45.12 121.49 C 41.04 121.50 36.97 121.52 32.89 121.48 C 34.48 115.86 37.06 110.56 38.44 104.89 Z" />
<path fill="#ffffff" opacity="1.00" d=" M 107.48 121.47 C 107.67 113.47 109.10 103.79 116.07 98.78 C 115.28 100.79 114.37 102.76 113.47 104.72 C 115.56 110.29 117.58 115.89 119.60 121.49 C 115.56 121.50 111.52 121.52 107.48 121.47 Z" />
</g>
<g id="#3f1502ff">
<path fill="#3f1502" opacity="1.00" d=" M 64.60 4.87 C 79.49 2.55 95.04 4.89 108.60 11.45 C 124.88 19.25 138.13 33.15 145.09 49.81 C 151.23 64.27 152.65 80.69 149.05 95.99 C 145.19 112.80 135.30 128.15 121.56 138.57 C 108.62 148.53 92.34 154.03 76.02 154.00 C 59.68 154.04 43.38 148.54 30.43 138.56 C 16.69 128.14 6.80 112.78 2.95 95.97 C -1.12 78.75 1.25 60.12 9.43 44.44 C 20.15 23.46 41.30 8.29 64.60 4.87 M 64.04 35.99 C 58.96 49.66 53.85 63.32 49.15 77.12 C 46.43 77.81 43.77 78.65 41.10 79.48 C 50.45 78.98 58.64 84.52 65.27 90.53 C 68.78 80.04 72.42 69.59 75.94 59.11 C 79.98 69.44 82.91 80.24 87.30 90.41 C 91.03 86.61 95.54 83.65 100.24 81.20 C 103.19 79.58 106.85 79.99 109.75 78.43 C 107.60 78.30 105.46 78.07 103.34 77.72 C 100.43 68.47 96.94 59.42 93.76 50.26 C 91.91 45.40 90.53 40.33 88.02 35.74 C 80.03 35.71 72.03 35.78 64.04 35.99 M 24.06 82.12 C 32.83 86.93 40.71 93.94 44.87 103.19 C 47.82 108.89 48.55 115.32 49.50 121.57 C 57.68 121.41 65.87 121.55 74.05 121.50 C 74.39 104.75 62.60 89.13 46.91 83.84 C 39.59 81.16 31.68 82.08 24.06 82.12 M 108.21 83.22 C 100.43 85.41 93.16 89.72 87.89 95.90 C 81.64 102.95 78.43 112.18 77.95 121.52 C 86.41 121.02 94.92 121.18 103.40 121.47 C 103.04 109.86 108.30 98.55 116.44 90.43 C 119.93 87.05 124.20 84.66 128.29 82.10 C 121.60 82.14 114.72 81.24 108.21 83.22 M 38.44 104.89 C 37.06 110.56 34.48 115.86 32.89 121.48 C 36.97 121.52 41.04 121.50 45.12 121.49 C 44.95 117.53 44.46 113.55 43.16 109.79 C 41.68 105.54 40.13 100.93 36.24 98.26 C 36.98 100.46 38.24 102.55 38.44 104.89 M 107.48 121.47 C 111.52 121.52 115.56 121.50 119.60 121.49 C 117.58 115.89 115.56 110.29 113.47 104.72 C 114.37 102.76 115.28 100.79 116.07 98.78 C 109.10 103.79 107.67 113.47 107.48 121.47 Z" />
</g>
</svg>
