<?xml version="1.0" encoding="UTF-8" ?>
<!DOCTYPE svg PUBLIC "-//W3C//DTD SVG 1.1//EN" "http://www.w3.org/Graphics/SVG/1.1/DTD/svg11.dtd">
<svg width="158pt" height="156pt" viewBox="0 0 158 156" version="1.1" xmlns="http://www.w3.org/2000/svg">
<g id="#ffffffff">
<path fill="#ffffff" opacity="1.00" d=" M 65.06 32.99 C 73.03 32.78 81.00 32.72 88.97 32.74 C 91.11 36.31 92.21 40.36 93.67 44.23 C 97.20 54.38 101.08 64.41 104.31 74.66 C 106.59 75.01 108.86 75.45 111.11 75.95 C 102.08 76.17 94.51 81.69 88.02 87.43 C 84.27 76.97 80.66 66.46 77.00 55.97 C 73.47 66.53 69.70 77.00 66.32 87.60 C 59.63 81.44 51.22 75.86 41.72 76.48 C 44.52 75.78 47.24 74.78 50.08 74.23 C 54.87 60.41 59.91 46.67 65.06 32.99 Z" />
<path fill="#ffffff" opacity="1.00" d=" M 24.70 79.00 C 31.71 79.28 38.91 78.19 45.76 80.18 C 62.47 84.72 75.44 100.99 75.04 118.50 C 66.82 118.51 58.61 118.50 50.40 118.50 C 49.60 107.43 45.73 96.27 37.63 88.41 C 33.88 84.57 29.41 81.52 24.70 79.00 Z" />
<path fill="#ffffff" opacity="1.00" d=" M 87.60 94.53 C 95.35 84.43 108.27 78.25 121.03 79.00 C 123.82 79.00 126.62 79.00 129.41 79.00 C 125.30 81.61 120.98 84.01 117.45 87.41 C 109.32 95.53 104.04 106.83 104.40 118.45 C 95.92 118.22 87.40 118.00 78.93 118.51 C 79.50 109.91 82.04 101.27 87.60 94.53 Z" />
<path fill="#ffffff" opacity="1.00" d=" M 39.47 101.82 C 39.22 99.52 37.98 97.47 37.23 95.30 C 38.59 96.44 40.08 97.53 40.91 99.15 C 44.11 105.07 46.02 111.74 46.10 118.50 C 42.03 118.50 37.96 118.51 33.89 118.50 C 35.47 112.84 38.07 107.52 39.47 101.82 Z" />
<path fill="#ffffff" opacity="1.00" d=" M 108.49 118.45 C 108.60 110.26 110.29 100.68 117.24 95.45 C 116.38 97.53 115.44 99.59 114.47 101.63 C 116.50 107.25 118.59 112.86 120.60 118.49 C 116.56 118.50 112.52 118.55 108.49 118.45 Z" />
</g>
<g id="#02243fff">
<path fill="#02243f" opacity="1.00" d=" M 72.18 1.15 C 87.68 0.12 103.47 4.09 116.64 12.33 C 131.29 21.38 142.59 35.66 148.05 51.99 C 153.67 68.45 153.27 86.87 146.94 103.07 C 141.08 118.35 130.04 131.57 116.04 140.04 C 102.37 148.42 85.96 152.21 70.00 150.67 C 52.54 149.08 35.73 141.12 23.50 128.55 C 10.76 115.72 3.03 98.08 2.11 80.03 C 1.13 62.85 6.34 45.40 16.57 31.57 C 29.42 13.88 50.36 2.44 72.18 1.15 M 65.06 32.99 C 59.91 46.67 54.87 60.41 50.08 74.23 C 47.24 74.78 44.52 75.78 41.72 76.48 C 51.22 75.86 59.63 81.44 66.32 87.60 C 69.70 77.00 73.47 66.53 77.00 55.97 C 80.66 66.46 84.27 76.97 88.02 87.43 C 94.51 81.69 102.08 76.17 111.11 75.95 C 108.86 75.45 106.59 75.01 104.31 74.66 C 101.08 64.41 97.20 54.38 93.67 44.23 C 92.21 40.36 91.11 36.31 88.97 32.74 C 81.00 32.72 73.03 32.78 65.06 32.99 M 24.70 79.00 C 29.41 81.52 33.88 84.57 37.63 88.41 C 45.73 96.27 49.60 107.43 50.40 118.50 C 58.61 118.50 66.82 118.51 75.04 118.50 C 75.44 100.99 62.47 84.72 45.76 80.18 C 38.91 78.19 31.71 79.28 24.70 79.00 M 87.60 94.53 C 82.04 101.27 79.50 109.91 78.93 118.51 C 87.40 118.00 95.92 118.22 104.40 118.45 C 104.04 106.83 109.32 95.53 117.45 87.41 C 120.98 84.01 125.30 81.61 129.41 79.00 C 126.62 79.00 123.82 79.00 121.03 79.00 C 108.27 78.25 95.35 84.43 87.60 94.53 M 39.47 101.82 C 38.07 107.52 35.47 112.84 33.89 118.50 C 37.96 118.51 42.03 118.50 46.10 118.50 C 46.02 111.74 44.11 105.07 40.91 99.15 C 40.08 97.53 38.59 96.44 37.23 95.30 C 37.98 97.47 39.22 99.52 39.47 101.82 M 108.49 118.45 C 112.52 118.55 116.56 118.50 120.60 118.49 C 118.59 112.86 116.50 107.25 114.47 101.63 C 115.44 99.59 116.38 97.53 117.24 95.45 C 110.29 100.68 108.60 110.26 108.49 118.45 Z" />
</g>
</svg>
