<svg width="137pt" height="119pt" viewBox="0 0 137 119" version="1.1" xmlns="http://www.w3.org/2000/svg"><g id="#b0025bff"></g><g id="#ffffffff"><path fill="#ffffff" opacity="1.00" d=" M 54.41 8.33 C 63.87 8.42 73.34 7.58 82.79 8.12 C 84.23 9.62 84.51 11.83 85.31 13.69 C 90.70 28.46 95.70 43.36 101.02 58.16 C 103.77 58.34 106.49 58.82 109.13 59.62 C 98.35 59.34 89.18 66.23 81.49 73.04 C 76.99 60.68 72.99 48.14 68.63 35.73 C 64.24 48.16 60.28 60.74 55.88 73.17 C 48.49 66.05 39.16 60.01 28.60 59.72 C 31.15 58.69 33.85 58.09 36.54 57.56 C 42.72 41.23 48.60 24.79 54.41 8.33 Z"></path><path fill="#ffffff" opacity="1.00" d=" M 6.68 63.06 C 12.13 62.89 17.60 62.97 23.06 62.99 C 46.55 64.51 67.11 86.23 66.11 110.00 C 56.45 110.03 46.78 110.09 37.11 109.97 C 36.27 103.04 35.43 95.98 32.43 89.60 C 27.49 77.94 17.87 68.73 6.68 63.06 Z"></path><path fill="#ffffff" opacity="1.00" d=" M 79.23 84.17 C 86.62 72.57 99.54 65.14 112.99 63.16 C 118.83 63.00 124.67 62.87 130.51 63.07 C 125.63 66.28 120.38 69.04 116.21 73.20 C 106.69 82.91 100.48 96.27 100.92 110.02 C 90.91 109.53 80.90 109.71 70.88 109.96 C 71.60 100.87 73.75 91.63 79.23 84.17 Z"></path><path fill="#ffffff" opacity="1.00" d=" M 21.62 82.57 C 23.53 83.90 25.29 85.53 26.30 87.67 C 29.92 94.51 31.97 102.23 32.09 109.97 C 27.29 110.06 22.49 110.09 17.69 109.93 C 19.45 103.13 22.71 96.80 24.34 89.98 C 23.76 87.40 22.41 85.08 21.62 82.57 Z"></path><path fill="#ffffff" opacity="1.00" d=" M 107.33 97.38 C 109.07 91.95 110.97 85.82 116.14 82.67 C 115.16 85.18 114.00 87.61 112.88 90.05 C 115.26 96.71 117.80 103.31 120.11 109.99 C 115.40 110.06 110.68 110.05 105.97 109.99 C 105.79 105.74 105.97 101.45 107.33 97.38 Z"></path></g></svg>