<?xml version="1.0" encoding="UTF-8" ?>
<!DOCTYPE svg PUBLIC "-//W3C//DTD SVG 1.1//EN" "http://www.w3.org/Graphics/SVG/1.1/DTD/svg11.dtd">
<svg width="533pt" height="438pt" viewBox="0 0 533 438" version="1.1" xmlns="http://www.w3.org/2000/svg">
<g id="#be0062ff">
<path fill="#be0062" opacity="1.00" d=" M 0.00 0.00 L 0.26 0.00 C 0.19 0.06 0.06 0.19 0.00 0.25 L 0.00 0.00 Z" />
<path fill="#be0062" opacity="1.00" d=" M 206.90 9.95 C 212.15 8.60 217.64 9.45 223.00 9.33 C 254.69 9.31 286.38 9.43 318.06 9.24 C 320.29 9.48 323.39 8.94 324.56 11.40 C 327.50 16.75 327.67 23.49 332.29 27.93 C 332.85 28.66 333.29 29.46 333.61 30.33 C 354.25 87.54 375.02 144.71 395.64 201.93 C 388.84 206.17 381.55 209.52 374.64 213.55 C 367.48 217.55 361.03 222.64 354.15 227.06 C 347.17 231.61 341.64 237.90 335.39 243.33 C 331.44 246.72 328.24 250.85 324.76 254.69 C 321.13 258.62 317.86 263.17 312.85 265.44 C 296.72 218.13 281.05 170.67 264.77 123.41 C 264.20 124.62 263.64 125.84 263.16 127.09 C 251.94 160.76 240.50 194.36 229.17 228.00 C 228.65 227.84 227.62 227.53 227.10 227.37 C 225.53 234.67 221.29 241.06 220.06 248.45 C 219.12 253.70 216.73 258.51 214.10 263.10 C 205.11 250.53 193.78 239.91 182.23 229.75 C 171.96 221.61 160.69 214.79 149.03 208.83 C 144.55 206.35 140.09 203.79 135.24 202.07 L 134.70 201.87 C 140.95 185.85 146.43 169.54 152.44 153.43 C 158.05 138.32 163.08 122.97 169.12 108.02 C 169.17 108.61 169.28 109.79 169.34 110.38 C 171.84 106.16 173.44 101.50 174.96 96.86 C 179.32 84.56 184.23 72.47 188.24 60.05 C 192.83 47.36 198.03 34.88 202.08 21.99 C 203.51 17.93 204.34 13.50 206.90 9.95 Z" />
<path fill="#be0062" opacity="1.00" d=" M 68.88 322.13 C 67.94 320.42 67.28 318.56 66.92 316.64 C 76.56 321.80 83.84 330.58 88.84 340.17 C 95.41 352.34 100.60 365.24 104.56 378.48 C 104.93 379.85 105.34 381.25 105.35 382.69 C 104.64 390.17 107.44 397.29 108.25 404.63 C 109.38 413.56 110.50 422.50 110.66 431.51 C 93.10 431.87 75.53 431.58 57.98 431.70 C 55.37 432.10 53.87 430.25 53.12 428.01 C 62.04 402.99 71.22 378.07 80.18 353.07 C 81.17 350.51 81.22 347.58 79.98 345.10 C 76.64 337.28 72.94 329.61 68.88 322.13 Z" />
<path fill="#be0062" opacity="1.00" d=" M 444.81 334.82 C 450.01 327.60 455.98 320.04 464.50 316.67 C 459.32 327.41 453.23 337.82 449.23 349.09 C 457.34 373.85 467.19 398.12 475.42 422.84 C 475.47 425.72 475.40 428.61 475.40 431.49 C 457.10 431.81 438.78 431.76 420.47 431.52 C 420.41 424.64 420.38 417.76 419.79 410.91 C 422.37 384.14 431.26 358.02 444.81 334.82 Z" />
</g>
<g id="#feffffff">
</g>
<g id="#9c0152ff">
<path fill="#9c0152" opacity="1.00" d=" M 205.10 8.04 C 245.27 8.12 285.45 7.98 325.62 8.11 C 327.67 14.78 330.68 21.13 332.29 27.93 C 327.67 23.49 327.50 16.75 324.56 11.40 C 323.39 8.94 320.29 9.48 318.06 9.24 C 286.38 9.43 254.69 9.31 223.00 9.33 C 217.64 9.45 212.15 8.60 206.90 9.95 C 204.34 13.50 203.51 17.93 202.08 21.99 C 198.03 34.88 192.83 47.36 188.24 60.05 C 184.23 72.47 179.32 84.56 174.96 96.86 C 173.44 101.50 171.84 106.16 169.34 110.38 C 169.28 109.79 169.17 108.61 169.12 108.02 C 169.68 105.22 170.92 102.61 171.83 99.91 C 182.92 69.28 194.02 38.67 205.10 8.04 Z" />
<path fill="#9c0152" opacity="1.00" d=" M 395.64 201.93 C 397.31 206.35 398.95 210.78 400.39 215.29 C 407.06 216.11 413.79 216.83 420.28 218.69 C 425.24 220.17 430.54 221.08 434.92 224.03 C 428.29 224.16 421.62 223.81 415.04 224.86 C 405.13 225.96 395.79 229.68 386.74 233.65 C 372.94 239.49 359.86 246.94 347.64 255.59 C 336.91 262.86 327.45 271.75 318.01 280.57 C 316.07 275.60 314.54 270.49 312.85 265.44 C 317.86 263.17 321.13 258.62 324.76 254.69 C 328.24 250.85 331.44 246.72 335.39 243.33 C 341.64 237.90 347.17 231.61 354.15 227.06 C 361.03 222.64 367.48 217.55 374.64 213.55 C 381.55 209.52 388.84 206.17 395.64 201.93 Z" />
<path fill="#9c0152" opacity="1.00" d=" M 129.21 215.44 C 132.31 211.67 132.58 206.22 135.24 202.07 C 140.09 203.79 144.55 206.35 149.03 208.83 C 160.69 214.79 171.96 221.61 182.23 229.75 C 193.78 239.91 205.11 250.53 214.10 263.10 C 216.73 258.51 219.12 253.70 220.06 248.45 C 221.29 241.06 225.53 234.67 227.10 227.37 C 227.62 227.53 228.65 227.84 229.17 228.00 C 223.17 245.19 217.71 262.57 211.59 279.72 C 188.16 256.48 159.61 238.28 128.34 227.62 C 117.75 224.08 106.49 224.11 95.46 223.77 C 106.10 219.02 117.66 216.63 129.21 215.44 Z" />
<path fill="#9c0152" opacity="1.00" d=" M 108.25 404.63 C 107.44 397.29 104.64 390.17 105.35 382.69 C 106.48 385.70 107.26 388.83 107.87 391.99 C 110.64 405.45 112.26 419.19 111.95 432.94 C 91.79 432.98 71.63 432.96 51.47 432.95 C 52.00 431.29 52.55 429.65 53.12 428.01 C 53.87 430.25 55.37 432.10 57.98 431.70 C 75.53 431.58 93.10 431.87 110.66 431.51 C 110.50 422.50 109.38 413.56 108.25 404.63 Z" />
<path fill="#9c0152" opacity="1.00" d=" M 419.05 432.97 C 419.15 425.61 418.61 418.20 419.79 410.91 C 420.38 417.76 420.41 424.64 420.47 431.52 C 438.78 431.76 457.10 431.81 475.40 431.49 C 475.40 428.61 475.47 425.72 475.42 422.84 C 476.86 426.11 478.06 429.49 479.09 432.92 C 459.08 433.02 439.07 432.92 419.05 432.97 Z" />
</g>
<g id="#186cceff">
<path fill="#186cce" opacity="1.00" d=" M 3.52 236.00 C 23.33 235.42 43.17 235.88 63.00 235.76 C 70.65 236.25 78.45 236.09 85.93 237.99 L 84.98 238.11 C 81.45 238.65 77.86 238.57 74.33 237.99 C 67.93 236.98 61.45 237.27 55.00 237.31 C 40.67 237.33 26.35 237.29 12.03 237.31 C 12.25 237.77 12.70 238.68 12.93 239.13 C 19.48 240.78 26.02 242.47 32.54 244.24 C 43.26 247.04 53.32 251.80 63.24 256.63 C 76.34 262.90 88.28 271.32 99.58 280.37 C 122.47 297.92 140.45 321.48 152.63 347.55 C 156.14 354.46 159.26 361.62 161.06 369.19 C 163.02 377.10 166.20 384.68 167.52 392.75 C 169.56 405.02 171.42 417.38 171.44 429.84 C 176.26 430.55 181.13 430.87 186.00 430.75 C 208.20 430.43 230.41 431.04 252.61 430.46 C 252.16 418.64 250.95 406.87 249.55 395.13 C 247.87 382.89 243.79 371.13 239.11 359.75 C 237.62 356.21 236.69 352.47 235.89 348.72 C 238.60 352.80 240.21 357.45 241.98 361.98 C 250.65 384.61 255.28 408.86 255.13 433.11 C 214.00 433.12 172.87 433.05 131.74 433.11 C 131.97 401.62 124.99 370.05 111.43 341.62 C 90.92 297.86 55.10 261.45 11.65 240.29 C 8.90 238.95 6.16 237.56 3.52 236.00 Z" />
<path fill="#186cce" opacity="1.00" d=" M 492.88 245.90 C 501.23 243.42 509.54 239.85 518.42 240.14 C 506.38 246.95 494.21 253.71 483.27 262.26 C 470.05 272.58 457.76 284.17 447.17 297.19 C 419.21 331.20 402.18 374.03 399.23 417.96 C 398.97 422.99 399.07 428.04 399.10 433.08 C 357.94 433.07 316.78 433.11 275.62 433.12 C 275.16 410.32 279.40 387.52 287.04 366.08 C 288.24 362.70 289.48 359.29 291.46 356.28 C 291.55 362.60 287.82 367.94 286.07 373.80 C 283.74 381.20 282.31 388.82 280.62 396.38 C 277.70 407.92 278.29 419.93 277.14 431.70 C 304.42 431.63 331.70 431.68 358.98 431.68 C 360.02 422.00 359.70 412.21 361.47 402.62 C 365.27 381.03 371.40 359.58 382.27 340.42 C 388.49 327.61 396.70 315.82 406.09 305.15 C 410.20 299.94 414.64 294.98 419.79 290.76 C 430.97 280.01 443.14 270.19 456.65 262.50 C 467.83 255.19 480.44 250.57 492.88 245.90 Z" />
</g>
<g id="#1e83f7ff">
<path fill="#1e83f7" opacity="1.00" d=" M 404.65 247.75 C 428.03 239.06 453.10 235.21 478.00 235.72 C 494.44 235.93 510.91 235.31 527.33 236.03 C 524.47 237.58 521.67 239.56 518.42 240.14 C 509.54 239.85 501.23 243.42 492.88 245.90 C 480.44 250.57 467.83 255.19 456.65 262.50 C 443.14 270.19 430.97 280.01 419.79 290.76 C 414.64 294.98 410.20 299.94 406.09 305.15 C 396.70 315.82 388.49 327.61 382.27 340.42 C 371.40 359.58 365.27 381.03 361.47 402.62 C 359.70 412.21 360.02 422.00 358.98 431.68 C 331.70 431.68 304.42 431.63 277.14 431.70 C 278.29 419.93 277.70 407.92 280.62 396.38 C 282.31 388.82 283.74 381.20 286.07 373.80 C 287.82 367.94 291.55 362.60 291.46 356.28 C 291.55 354.96 291.96 353.70 292.47 352.49 C 313.82 304.44 355.19 265.66 404.65 247.75 Z" />
<path fill="#1e83f7" opacity="1.00" d=" M 12.03 237.31 C 26.35 237.29 40.67 237.33 55.00 237.31 C 61.45 237.27 67.93 236.98 74.33 237.99 C 77.86 238.57 81.45 238.65 84.98 238.11 C 86.68 237.98 88.38 238.13 90.07 238.33 C 148.52 247.57 201.70 285.04 230.17 336.89 C 232.24 340.74 234.73 344.46 235.89 348.72 C 236.69 352.47 237.62 356.21 239.11 359.75 C 243.79 371.13 247.87 382.89 249.55 395.13 C 250.95 406.87 252.16 418.64 252.61 430.46 C 230.41 431.04 208.20 430.43 186.00 430.75 C 181.13 430.87 176.26 430.55 171.44 429.84 C 171.42 417.38 169.56 405.02 167.52 392.75 C 166.20 384.68 163.02 377.10 161.06 369.19 C 159.26 361.62 156.14 354.46 152.63 347.55 C 140.45 321.48 122.47 297.92 99.58 280.37 C 88.28 271.32 76.34 262.90 63.24 256.63 C 53.32 251.80 43.26 247.04 32.54 244.24 C 26.02 242.47 19.48 240.78 12.93 239.13 C 12.70 238.68 12.25 237.77 12.03 237.31 Z" />
</g>
</svg>
