<?xml version="1.0" encoding="UTF-8" ?>
<!DOCTYPE svg PUBLIC "-//W3C//DTD SVG 1.1//EN" "http://www.w3.org/Graphics/SVG/1.1/DTD/svg11.dtd">
<svg width="529pt" height="455pt" viewBox="0 0 529 455" version="1.1" xmlns="http://www.w3.org/2000/svg">
<g id="#ffffffff">
</g>
<g id="#bc0061ff">
<path fill="#bc0061" opacity="1.00" d=" M 206.12 17.83 C 245.10 17.62 284.08 17.82 323.06 17.73 C 324.37 17.89 326.53 17.28 326.93 19.10 C 351.63 87.42 376.30 155.76 401.10 224.04 C 401.40 225.76 403.38 225.50 404.66 225.74 C 416.20 226.91 427.75 229.61 438.22 234.68 C 429.91 233.68 421.49 233.90 413.25 235.31 C 403.61 236.73 394.63 240.70 385.75 244.53 C 360.79 255.41 338.34 271.49 319.04 290.61 C 300.98 238.15 283.70 185.42 265.64 132.96 C 250.37 177.98 235.29 223.08 219.99 268.10 C 217.41 275.31 215.64 282.81 212.40 289.78 C 190.87 267.95 164.50 250.97 135.89 240.00 C 122.65 234.56 107.97 232.96 93.82 234.79 C 105.49 229.43 118.20 226.55 130.95 225.35 C 156.12 156.21 181.07 87.00 206.12 17.83 Z" />
<path fill="#bc0061" opacity="1.00" d=" M 67.41 326.67 C 75.60 330.17 81.58 337.27 86.55 344.42 C 104.15 374.11 113.12 408.63 113.24 443.09 C 92.98 443.02 72.71 443.18 52.45 443.00 C 61.97 415.48 72.29 388.22 82.01 360.76 C 83.10 358.31 81.14 356.00 80.40 353.74 C 76.57 344.48 71.49 335.81 67.41 326.67 Z" />
<path fill="#bc0061" opacity="1.00" d=" M 451.97 336.97 C 455.91 332.77 460.11 328.44 465.72 326.58 C 460.25 337.25 454.32 347.81 450.22 359.09 C 459.53 387.26 470.68 414.86 480.07 443.03 C 459.87 443.03 439.66 443.30 419.48 442.88 C 419.32 410.59 427.43 378.29 442.87 349.93 C 445.30 345.22 448.37 340.86 451.97 336.97 Z" />
</g>
<g id="#1d7dedff">
<path fill="#1d7ded" opacity="1.00" d=" M 4.59 246.02 C 22.37 245.35 40.20 245.89 58.00 245.72 C 89.13 245.50 120.33 252.76 148.04 266.98 C 168.38 277.19 186.78 291.13 202.48 307.57 C 226.42 332.94 243.48 364.77 251.16 398.81 C 254.43 413.22 256.36 428.03 255.88 442.83 C 237.93 443.45 219.96 442.94 202.00 443.11 C 183.00 443.13 164.00 443.07 145.00 443.08 C 140.87 443.13 136.74 443.15 132.63 442.76 C 133.15 406.38 123.33 370.07 105.62 338.35 C 85.66 302.73 55.40 272.88 19.32 253.69 C 14.49 250.98 9.28 248.98 4.59 246.02 Z" />
<path fill="#1d7ded" opacity="1.00" d=" M 346.94 291.87 C 381.97 261.94 427.98 245.48 474.00 245.70 C 492.08 245.89 510.18 245.36 528.25 245.99 C 522.66 249.29 516.62 251.75 510.97 254.93 C 478.98 272.50 451.56 298.39 432.29 329.39 C 411.02 363.15 399.68 403.01 399.70 442.90 C 371.14 443.30 342.57 443.01 314.00 443.11 C 301.50 442.91 288.98 443.51 276.50 442.78 C 275.98 385.35 302.59 328.36 346.94 291.87 Z" />
</g>
</svg>
